<svg width="527" height="40" viewBox="0 0 527 40" fill="none" xmlns="http://www.w3.org/2000/svg">
<rect x="0.5" y="0.5" width="526" height="39" rx="1.5" fill="#E6F7FF"/>
<rect x="0.5" y="0.5" width="526" height="39" rx="1.5" stroke="#91D5FF"/>
<path d="M25 13C21.1344 13 18 16.1344 18 20C18 23.8656 21.1344 27 25 27C28.8656 27 32 23.8656 32 20C32 16.1344 28.8656 13 25 13ZM25.5 23.375C25.5 23.4438 25.4437 23.5 25.375 23.5H24.625C24.5563 23.5 24.5 23.4438 24.5 23.375V19.125C24.5 19.0563 24.5563 19 24.625 19H25.375C25.4437 19 25.5 19.0563 25.5 19.125V23.375ZM25 18C24.8037 17.996 24.6169 17.9152 24.4795 17.775C24.3421 17.6348 24.2652 17.4463 24.2652 17.25C24.2652 17.0537 24.3421 16.8652 24.4795 16.725C24.6169 16.5848 24.8037 16.504 25 16.5C25.1963 16.504 25.3831 16.5848 25.5205 16.725C25.6579 16.8652 25.7348 17.0537 25.7348 17.25C25.7348 17.4463 25.6579 17.6348 25.5205 17.775C25.3831 17.9152 25.1963 17.996 25 18Z" fill="#1890FF"/>
<path d="M48.8262 21.0967H46.167V20.0234H48.8262C49.3411 20.0234 49.7581 19.9414 50.0771 19.7773C50.3962 19.6133 50.6286 19.3854 50.7744 19.0938C50.9248 18.8021 51 18.4694 51 18.0957C51 17.7539 50.9248 17.4326 50.7744 17.1318C50.6286 16.8311 50.3962 16.5895 50.0771 16.4072C49.7581 16.2204 49.3411 16.127 48.8262 16.127H46.4746V25H45.1553V15.0469H48.8262C49.5781 15.0469 50.2139 15.1768 50.7334 15.4365C51.2529 15.6963 51.6471 16.0563 51.916 16.5166C52.1849 16.9723 52.3193 17.4941 52.3193 18.082C52.3193 18.7201 52.1849 19.2646 51.916 19.7158C51.6471 20.167 51.2529 20.5111 50.7334 20.748C50.2139 20.9805 49.5781 21.0967 48.8262 21.0967ZM58.3213 23.291V17.6035H59.5928V25H58.3828L58.3213 23.291ZM58.5605 21.7324L59.0869 21.7188C59.0869 22.2109 59.0345 22.6667 58.9297 23.0859C58.8294 23.5007 58.6654 23.8607 58.4375 24.166C58.2096 24.4714 57.9111 24.7106 57.542 24.8838C57.1729 25.0524 56.724 25.1367 56.1953 25.1367C55.8353 25.1367 55.5049 25.0843 55.2041 24.9795C54.9079 24.8747 54.6527 24.7129 54.4385 24.4941C54.2243 24.2754 54.0579 23.9906 53.9395 23.6396C53.8255 23.2887 53.7686 22.8672 53.7686 22.375V17.6035H55.0332V22.3887C55.0332 22.7214 55.0697 22.9971 55.1426 23.2158C55.2201 23.43 55.3226 23.6009 55.4502 23.7285C55.5824 23.8516 55.7282 23.9382 55.8877 23.9883C56.0518 24.0384 56.2204 24.0635 56.3936 24.0635C56.9313 24.0635 57.3574 23.9609 57.6719 23.7559C57.9863 23.5462 58.2119 23.266 58.3486 22.915C58.4899 22.5596 58.5605 22.1654 58.5605 21.7324ZM64.5898 25.1367C64.0749 25.1367 63.6077 25.0501 63.1885 24.877C62.7738 24.6992 62.416 24.4508 62.1152 24.1318C61.819 23.8128 61.5911 23.4346 61.4316 22.9971C61.2721 22.5596 61.1924 22.0811 61.1924 21.5615V21.2744C61.1924 20.6729 61.2812 20.1374 61.459 19.668C61.6367 19.194 61.8783 18.793 62.1836 18.4648C62.4889 18.1367 62.8353 17.8883 63.2227 17.7197C63.61 17.5511 64.0111 17.4668 64.4258 17.4668C64.9544 17.4668 65.4102 17.5579 65.793 17.7402C66.1803 17.9225 66.4971 18.1777 66.7432 18.5059C66.9893 18.8294 67.1715 19.2122 67.29 19.6543C67.4085 20.0918 67.4678 20.5703 67.4678 21.0898V21.6572H61.9443V20.625H66.2031V20.5293C66.1849 20.2012 66.1165 19.8822 65.998 19.5723C65.8841 19.2624 65.7018 19.0072 65.4512 18.8066C65.2005 18.6061 64.8587 18.5059 64.4258 18.5059C64.1387 18.5059 63.8743 18.5674 63.6328 18.6904C63.3913 18.8089 63.1839 18.9867 63.0107 19.2236C62.8376 19.4606 62.7031 19.75 62.6074 20.0918C62.5117 20.4336 62.4639 20.8278 62.4639 21.2744V21.5615C62.4639 21.9124 62.5117 22.2428 62.6074 22.5527C62.7077 22.8581 62.8512 23.127 63.0381 23.3594C63.2295 23.5918 63.4596 23.7741 63.7285 23.9062C64.002 24.0384 64.3118 24.1045 64.6582 24.1045C65.1048 24.1045 65.4831 24.0133 65.793 23.8311C66.1029 23.6488 66.374 23.4049 66.6064 23.0996L67.3721 23.708C67.2126 23.9495 67.0098 24.1797 66.7637 24.3984C66.5176 24.6172 66.2145 24.7949 65.8545 24.9316C65.499 25.0684 65.0775 25.1367 64.5898 25.1367ZM73.6064 23.5645V14.5H74.8779V25H73.7158L73.6064 23.5645ZM68.6299 21.3838V21.2402C68.6299 20.6751 68.6982 20.1624 68.835 19.7021C68.9762 19.2373 69.1745 18.8385 69.4297 18.5059C69.6895 18.1732 69.9971 17.918 70.3525 17.7402C70.7126 17.5579 71.1136 17.4668 71.5557 17.4668C72.0205 17.4668 72.4261 17.5488 72.7725 17.7129C73.1234 17.8724 73.4196 18.1071 73.6611 18.417C73.9072 18.7223 74.1009 19.0915 74.2422 19.5244C74.3835 19.9574 74.4814 20.4473 74.5361 20.9941V21.623C74.486 22.1654 74.388 22.653 74.2422 23.0859C74.1009 23.5189 73.9072 23.888 73.6611 24.1934C73.4196 24.4987 73.1234 24.7334 72.7725 24.8975C72.4215 25.057 72.0114 25.1367 71.542 25.1367C71.109 25.1367 70.7126 25.0433 70.3525 24.8564C69.9971 24.6696 69.6895 24.4076 69.4297 24.0703C69.1745 23.7331 68.9762 23.3366 68.835 22.8809C68.6982 22.4206 68.6299 21.9215 68.6299 21.3838ZM69.9014 21.2402V21.3838C69.9014 21.7529 69.9378 22.0993 70.0107 22.4229C70.0882 22.7464 70.2067 23.0312 70.3662 23.2773C70.5257 23.5234 70.7285 23.7171 70.9746 23.8584C71.2207 23.9951 71.5146 24.0635 71.8564 24.0635C72.2757 24.0635 72.6198 23.9746 72.8887 23.7969C73.1621 23.6191 73.3809 23.3844 73.5449 23.0928C73.709 22.8011 73.8366 22.4844 73.9277 22.1426V20.4951C73.873 20.2445 73.7933 20.0029 73.6885 19.7705C73.5882 19.5335 73.4561 19.3239 73.292 19.1416C73.1325 18.9548 72.9342 18.8066 72.6973 18.6973C72.4648 18.5879 72.1891 18.5332 71.8701 18.5332C71.5238 18.5332 71.2253 18.6061 70.9746 18.752C70.7285 18.8932 70.5257 19.0892 70.3662 19.3398C70.2067 19.5859 70.0882 19.873 70.0107 20.2012C69.9378 20.5247 69.9014 20.8711 69.9014 21.2402ZM79.916 25.1367C79.401 25.1367 78.9339 25.0501 78.5146 24.877C78.0999 24.6992 77.7422 24.4508 77.4414 24.1318C77.1452 23.8128 76.9173 23.4346 76.7578 22.9971C76.5983 22.5596 76.5186 22.0811 76.5186 21.5615V21.2744C76.5186 20.6729 76.6074 20.1374 76.7852 19.668C76.9629 19.194 77.2044 18.793 77.5098 18.4648C77.8151 18.1367 78.1615 17.8883 78.5488 17.7197C78.9362 17.5511 79.3372 17.4668 79.752 17.4668C80.2806 17.4668 80.7363 17.5579 81.1191 17.7402C81.5065 17.9225 81.8232 18.1777 82.0693 18.5059C82.3154 18.8294 82.4977 19.2122 82.6162 19.6543C82.7347 20.0918 82.7939 20.5703 82.7939 21.0898V21.6572H77.2705V20.625H81.5293V20.5293C81.5111 20.2012 81.4427 19.8822 81.3242 19.5723C81.2103 19.2624 81.028 19.0072 80.7773 18.8066C80.5267 18.6061 80.1849 18.5059 79.752 18.5059C79.4648 18.5059 79.2005 18.5674 78.959 18.6904C78.7174 18.8089 78.5101 18.9867 78.3369 19.2236C78.1637 19.4606 78.0293 19.75 77.9336 20.0918C77.8379 20.4336 77.79 20.8278 77.79 21.2744V21.5615C77.79 21.9124 77.8379 22.2428 77.9336 22.5527C78.0339 22.8581 78.1774 23.127 78.3643 23.3594C78.5557 23.5918 78.7858 23.7741 79.0547 23.9062C79.3281 24.0384 79.638 24.1045 79.9844 24.1045C80.431 24.1045 80.8092 24.0133 81.1191 23.8311C81.429 23.6488 81.7002 23.4049 81.9326 23.0996L82.6982 23.708C82.5387 23.9495 82.3359 24.1797 82.0898 24.3984C81.8438 24.6172 81.5407 24.7949 81.1807 24.9316C80.8252 25.0684 80.4036 25.1367 79.916 25.1367ZM88.5771 23.0381C88.5771 22.8558 88.5361 22.6872 88.4541 22.5322C88.3766 22.3727 88.2148 22.2292 87.9688 22.1016C87.7272 21.9694 87.3626 21.8555 86.875 21.7598C86.4648 21.6732 86.0934 21.5706 85.7607 21.4521C85.4326 21.3337 85.1523 21.1901 84.9199 21.0215C84.6921 20.8529 84.5166 20.6546 84.3936 20.4268C84.2705 20.1989 84.209 19.9323 84.209 19.627C84.209 19.3353 84.2728 19.0596 84.4004 18.7998C84.5326 18.54 84.7171 18.3099 84.9541 18.1094C85.1956 17.9089 85.485 17.7516 85.8223 17.6377C86.1595 17.5238 86.5355 17.4668 86.9502 17.4668C87.5426 17.4668 88.0485 17.5716 88.4678 17.7812C88.887 17.9909 89.2083 18.2712 89.4316 18.6221C89.6549 18.9684 89.7666 19.3535 89.7666 19.7773H88.502C88.502 19.5723 88.4404 19.374 88.3174 19.1826C88.1989 18.9867 88.0234 18.8249 87.791 18.6973C87.5632 18.5697 87.2829 18.5059 86.9502 18.5059C86.5993 18.5059 86.3145 18.5605 86.0957 18.6699C85.8815 18.7747 85.7243 18.9092 85.624 19.0732C85.5283 19.2373 85.4805 19.4105 85.4805 19.5928C85.4805 19.7295 85.5033 19.8525 85.5488 19.9619C85.599 20.0667 85.6855 20.1647 85.8086 20.2559C85.9316 20.3424 86.1048 20.4245 86.3281 20.502C86.5514 20.5794 86.8363 20.6569 87.1826 20.7344C87.7887 20.8711 88.2878 21.0352 88.6797 21.2266C89.0716 21.418 89.3633 21.6527 89.5547 21.9307C89.7461 22.2087 89.8418 22.5459 89.8418 22.9424C89.8418 23.266 89.7734 23.5622 89.6367 23.8311C89.5046 24.0999 89.3109 24.3324 89.0557 24.5283C88.805 24.7197 88.5042 24.8701 88.1533 24.9795C87.807 25.0843 87.4173 25.1367 86.9844 25.1367C86.3327 25.1367 85.7812 25.0205 85.3301 24.7881C84.8789 24.5557 84.5371 24.2549 84.3047 23.8857C84.0723 23.5166 83.9561 23.127 83.9561 22.7168H85.2275C85.2458 23.0632 85.346 23.3389 85.5283 23.5439C85.7106 23.7445 85.9339 23.888 86.1982 23.9746C86.4626 24.0566 86.7246 24.0977 86.9844 24.0977C87.3307 24.0977 87.6201 24.0521 87.8525 23.9609C88.0895 23.8698 88.2695 23.7445 88.3926 23.585C88.5156 23.4255 88.5771 23.2432 88.5771 23.0381ZM96.3496 17.6035V25H95.0781V17.6035H96.3496ZM94.9824 15.6416C94.9824 15.4365 95.0439 15.2633 95.167 15.1221C95.2946 14.9808 95.4814 14.9102 95.7275 14.9102C95.9691 14.9102 96.1536 14.9808 96.2812 15.1221C96.4134 15.2633 96.4795 15.4365 96.4795 15.6416C96.4795 15.8376 96.4134 16.0062 96.2812 16.1475C96.1536 16.2842 95.9691 16.3525 95.7275 16.3525C95.4814 16.3525 95.2946 16.2842 95.167 16.1475C95.0439 16.0062 94.9824 15.8376 94.9824 15.6416ZM99.6445 19.1826V25H98.3799V17.6035H99.5762L99.6445 19.1826ZM99.3438 21.0215L98.8174 21.001C98.8219 20.4951 98.8971 20.028 99.043 19.5996C99.1888 19.1667 99.3939 18.7907 99.6582 18.4717C99.9225 18.1527 100.237 17.9066 100.602 17.7334C100.971 17.5557 101.379 17.4668 101.825 17.4668C102.19 17.4668 102.518 17.5169 102.81 17.6172C103.101 17.7129 103.35 17.8678 103.555 18.082C103.764 18.2962 103.924 18.5742 104.033 18.916C104.143 19.2533 104.197 19.6657 104.197 20.1533V25H102.926V20.1396C102.926 19.7523 102.869 19.4424 102.755 19.21C102.641 18.973 102.475 18.8021 102.256 18.6973C102.037 18.5879 101.768 18.5332 101.449 18.5332C101.135 18.5332 100.848 18.5993 100.588 18.7314C100.333 18.8636 100.112 19.0459 99.9248 19.2783C99.7425 19.5107 99.599 19.7773 99.4941 20.0781C99.3939 20.3743 99.3438 20.6888 99.3438 21.0215ZM110.91 17.6035H112.059V24.8428C112.059 25.4945 111.926 26.0505 111.662 26.5107C111.398 26.971 111.029 27.3197 110.555 27.5566C110.085 27.7982 109.543 27.9189 108.928 27.9189C108.673 27.9189 108.372 27.8779 108.025 27.7959C107.684 27.7184 107.346 27.584 107.014 27.3926C106.686 27.2057 106.41 26.9528 106.187 26.6338L106.85 25.8818C107.16 26.2555 107.483 26.5153 107.82 26.6611C108.162 26.807 108.499 26.8799 108.832 26.8799C109.233 26.8799 109.579 26.8047 109.871 26.6543C110.163 26.5039 110.388 26.2806 110.548 25.9844C110.712 25.6927 110.794 25.3327 110.794 24.9043V19.2305L110.91 17.6035ZM105.817 21.3838V21.2402C105.817 20.6751 105.883 20.1624 106.016 19.7021C106.152 19.2373 106.346 18.8385 106.597 18.5059C106.852 18.1732 107.16 17.918 107.52 17.7402C107.88 17.5579 108.285 17.4668 108.736 17.4668C109.201 17.4668 109.607 17.5488 109.953 17.7129C110.304 17.8724 110.6 18.1071 110.842 18.417C111.088 18.7223 111.282 19.0915 111.423 19.5244C111.564 19.9574 111.662 20.4473 111.717 20.9941V21.623C111.667 22.1654 111.569 22.653 111.423 23.0859C111.282 23.5189 111.088 23.888 110.842 24.1934C110.6 24.4987 110.304 24.7334 109.953 24.8975C109.602 25.057 109.192 25.1367 108.723 25.1367C108.281 25.1367 107.88 25.0433 107.52 24.8564C107.164 24.6696 106.859 24.4076 106.604 24.0703C106.348 23.7331 106.152 23.3366 106.016 22.8809C105.883 22.4206 105.817 21.9215 105.817 21.3838ZM107.082 21.2402V21.3838C107.082 21.7529 107.118 22.0993 107.191 22.4229C107.269 22.7464 107.385 23.0312 107.54 23.2773C107.7 23.5234 107.902 23.7171 108.148 23.8584C108.395 23.9951 108.688 24.0635 109.03 24.0635C109.45 24.0635 109.796 23.9746 110.069 23.7969C110.343 23.6191 110.559 23.3844 110.719 23.0928C110.883 22.8011 111.01 22.4844 111.102 22.1426V20.4951C111.051 20.2445 110.974 20.0029 110.869 19.7705C110.769 19.5335 110.637 19.3239 110.473 19.1416C110.313 18.9548 110.115 18.8066 109.878 18.6973C109.641 18.5879 109.363 18.5332 109.044 18.5332C108.698 18.5332 108.399 18.6061 108.148 18.752C107.902 18.8932 107.7 19.0892 107.54 19.3398C107.385 19.5859 107.269 19.873 107.191 20.2012C107.118 20.5247 107.082 20.8711 107.082 21.2402ZM115.244 18.7656V25H113.979V17.6035H115.21L115.244 18.7656ZM117.555 17.5625L117.548 18.7383C117.443 18.7155 117.343 18.7018 117.247 18.6973C117.156 18.6882 117.051 18.6836 116.933 18.6836C116.641 18.6836 116.383 18.7292 116.16 18.8203C115.937 18.9115 115.748 19.0391 115.593 19.2031C115.438 19.3672 115.315 19.5632 115.224 19.791C115.137 20.0143 115.08 20.2604 115.053 20.5293L114.697 20.7344C114.697 20.2878 114.741 19.8685 114.827 19.4766C114.918 19.0846 115.057 18.7383 115.244 18.4375C115.431 18.1322 115.668 17.8952 115.955 17.7266C116.247 17.5534 116.593 17.4668 116.994 17.4668C117.085 17.4668 117.19 17.4782 117.309 17.501C117.427 17.5192 117.509 17.5397 117.555 17.5625ZM121.656 25.1367C121.141 25.1367 120.674 25.0501 120.255 24.877C119.84 24.6992 119.482 24.4508 119.182 24.1318C118.885 23.8128 118.658 23.4346 118.498 22.9971C118.339 22.5596 118.259 22.0811 118.259 21.5615V21.2744C118.259 20.6729 118.348 20.1374 118.525 19.668C118.703 19.194 118.945 18.793 119.25 18.4648C119.555 18.1367 119.902 17.8883 120.289 17.7197C120.676 17.5511 121.077 17.4668 121.492 17.4668C122.021 17.4668 122.477 17.5579 122.859 17.7402C123.247 17.9225 123.563 18.1777 123.81 18.5059C124.056 18.8294 124.238 19.2122 124.356 19.6543C124.475 20.0918 124.534 20.5703 124.534 21.0898V21.6572H119.011V20.625H123.27V20.5293C123.251 20.2012 123.183 19.8822 123.064 19.5723C122.951 19.2624 122.768 19.0072 122.518 18.8066C122.267 18.6061 121.925 18.5059 121.492 18.5059C121.205 18.5059 120.941 18.5674 120.699 18.6904C120.458 18.8089 120.25 18.9867 120.077 19.2236C119.904 19.4606 119.77 19.75 119.674 20.0918C119.578 20.4336 119.53 20.8278 119.53 21.2744V21.5615C119.53 21.9124 119.578 22.2428 119.674 22.5527C119.774 22.8581 119.918 23.127 120.104 23.3594C120.296 23.5918 120.526 23.7741 120.795 23.9062C121.068 24.0384 121.378 24.1045 121.725 24.1045C122.171 24.1045 122.549 24.0133 122.859 23.8311C123.169 23.6488 123.44 23.4049 123.673 23.0996L124.438 23.708C124.279 23.9495 124.076 24.1797 123.83 24.3984C123.584 24.6172 123.281 24.7949 122.921 24.9316C122.565 25.0684 122.144 25.1367 121.656 25.1367ZM130.317 23.0381C130.317 22.8558 130.276 22.6872 130.194 22.5322C130.117 22.3727 129.955 22.2292 129.709 22.1016C129.467 21.9694 129.103 21.8555 128.615 21.7598C128.205 21.6732 127.834 21.5706 127.501 21.4521C127.173 21.3337 126.893 21.1901 126.66 21.0215C126.432 20.8529 126.257 20.6546 126.134 20.4268C126.011 20.1989 125.949 19.9323 125.949 19.627C125.949 19.3353 126.013 19.0596 126.141 18.7998C126.273 18.54 126.457 18.3099 126.694 18.1094C126.936 17.9089 127.225 17.7516 127.562 17.6377C127.9 17.5238 128.276 17.4668 128.69 17.4668C129.283 17.4668 129.789 17.5716 130.208 17.7812C130.627 17.9909 130.949 18.2712 131.172 18.6221C131.395 18.9684 131.507 19.3535 131.507 19.7773H130.242C130.242 19.5723 130.181 19.374 130.058 19.1826C129.939 18.9867 129.764 18.8249 129.531 18.6973C129.303 18.5697 129.023 18.5059 128.69 18.5059C128.34 18.5059 128.055 18.5605 127.836 18.6699C127.622 18.7747 127.465 18.9092 127.364 19.0732C127.269 19.2373 127.221 19.4105 127.221 19.5928C127.221 19.7295 127.243 19.8525 127.289 19.9619C127.339 20.0667 127.426 20.1647 127.549 20.2559C127.672 20.3424 127.845 20.4245 128.068 20.502C128.292 20.5794 128.576 20.6569 128.923 20.7344C129.529 20.8711 130.028 21.0352 130.42 21.2266C130.812 21.418 131.104 21.6527 131.295 21.9307C131.486 22.2087 131.582 22.5459 131.582 22.9424C131.582 23.266 131.514 23.5622 131.377 23.8311C131.245 24.0999 131.051 24.3324 130.796 24.5283C130.545 24.7197 130.244 24.8701 129.894 24.9795C129.547 25.0843 129.158 25.1367 128.725 25.1367C128.073 25.1367 127.521 25.0205 127.07 24.7881C126.619 24.5557 126.277 24.2549 126.045 23.8857C125.812 23.5166 125.696 23.127 125.696 22.7168H126.968C126.986 23.0632 127.086 23.3389 127.269 23.5439C127.451 23.7445 127.674 23.888 127.938 23.9746C128.203 24.0566 128.465 24.0977 128.725 24.0977C129.071 24.0977 129.36 24.0521 129.593 23.9609C129.83 23.8698 130.01 23.7445 130.133 23.585C130.256 23.4255 130.317 23.2432 130.317 23.0381ZM137.604 23.7354V19.9277C137.604 19.6361 137.545 19.3831 137.427 19.1689C137.313 18.9502 137.14 18.7816 136.907 18.6631C136.675 18.5446 136.388 18.4854 136.046 18.4854C135.727 18.4854 135.447 18.54 135.205 18.6494C134.968 18.7588 134.781 18.9023 134.645 19.0801C134.512 19.2578 134.446 19.4492 134.446 19.6543H133.182C133.182 19.39 133.25 19.1279 133.387 18.8682C133.523 18.6084 133.719 18.3737 133.975 18.1641C134.234 17.9499 134.544 17.7812 134.904 17.6582C135.269 17.5306 135.674 17.4668 136.121 17.4668C136.659 17.4668 137.133 17.5579 137.543 17.7402C137.958 17.9225 138.281 18.1982 138.514 18.5674C138.751 18.932 138.869 19.39 138.869 19.9414V23.3867C138.869 23.6328 138.89 23.8949 138.931 24.1729C138.976 24.4508 139.042 24.6901 139.129 24.8906V25H137.81C137.746 24.8542 137.696 24.6605 137.659 24.4189C137.623 24.1729 137.604 23.945 137.604 23.7354ZM137.823 20.5156L137.837 21.4043H136.559C136.199 21.4043 135.877 21.4339 135.595 21.4932C135.312 21.5479 135.075 21.6322 134.884 21.7461C134.692 21.86 134.547 22.0036 134.446 22.1768C134.346 22.3454 134.296 22.5436 134.296 22.7715C134.296 23.0039 134.348 23.2158 134.453 23.4072C134.558 23.5986 134.715 23.7513 134.925 23.8652C135.139 23.9746 135.401 24.0293 135.711 24.0293C136.098 24.0293 136.44 23.9473 136.736 23.7832C137.033 23.6191 137.267 23.4186 137.44 23.1816C137.618 22.9447 137.714 22.7145 137.728 22.4912L138.268 23.0996C138.236 23.291 138.149 23.5029 138.008 23.7354C137.867 23.9678 137.677 24.1911 137.44 24.4053C137.208 24.6149 136.93 24.7904 136.606 24.9316C136.287 25.0684 135.927 25.1367 135.526 25.1367C135.025 25.1367 134.585 25.0387 134.207 24.8428C133.833 24.6468 133.542 24.3848 133.332 24.0566C133.127 23.724 133.024 23.3525 133.024 22.9424C133.024 22.5459 133.102 22.1973 133.257 21.8965C133.412 21.5911 133.635 21.3382 133.927 21.1377C134.218 20.9326 134.569 20.7777 134.979 20.6729C135.39 20.568 135.848 20.5156 136.354 20.5156H137.823ZM142.123 18.7656V25H140.858V17.6035H142.089L142.123 18.7656ZM144.434 17.5625L144.427 18.7383C144.322 18.7155 144.222 18.7018 144.126 18.6973C144.035 18.6882 143.93 18.6836 143.812 18.6836C143.52 18.6836 143.262 18.7292 143.039 18.8203C142.816 18.9115 142.627 19.0391 142.472 19.2031C142.317 19.3672 142.194 19.5632 142.103 19.791C142.016 20.0143 141.959 20.2604 141.932 20.5293L141.576 20.7344C141.576 20.2878 141.619 19.8685 141.706 19.4766C141.797 19.0846 141.936 18.7383 142.123 18.4375C142.31 18.1322 142.547 17.8952 142.834 17.7266C143.126 17.5534 143.472 17.4668 143.873 17.4668C143.964 17.4668 144.069 17.4782 144.188 17.501C144.306 17.5192 144.388 17.5397 144.434 17.5625ZM153.437 23.7354V19.9277C153.437 19.6361 153.377 19.3831 153.259 19.1689C153.145 18.9502 152.972 18.7816 152.739 18.6631C152.507 18.5446 152.22 18.4854 151.878 18.4854C151.559 18.4854 151.279 18.54 151.037 18.6494C150.8 18.7588 150.613 18.9023 150.477 19.0801C150.344 19.2578 150.278 19.4492 150.278 19.6543H149.014C149.014 19.39 149.082 19.1279 149.219 18.8682C149.355 18.6084 149.551 18.3737 149.807 18.1641C150.066 17.9499 150.376 17.7812 150.736 17.6582C151.101 17.5306 151.507 17.4668 151.953 17.4668C152.491 17.4668 152.965 17.5579 153.375 17.7402C153.79 17.9225 154.113 18.1982 154.346 18.5674C154.583 18.932 154.701 19.39 154.701 19.9414V23.3867C154.701 23.6328 154.722 23.8949 154.763 24.1729C154.808 24.4508 154.874 24.6901 154.961 24.8906V25H153.642C153.578 24.8542 153.528 24.6605 153.491 24.4189C153.455 24.1729 153.437 23.945 153.437 23.7354ZM153.655 20.5156L153.669 21.4043H152.391C152.031 21.4043 151.709 21.4339 151.427 21.4932C151.144 21.5479 150.907 21.6322 150.716 21.7461C150.524 21.86 150.379 22.0036 150.278 22.1768C150.178 22.3454 150.128 22.5436 150.128 22.7715C150.128 23.0039 150.18 23.2158 150.285 23.4072C150.39 23.5986 150.547 23.7513 150.757 23.8652C150.971 23.9746 151.233 24.0293 151.543 24.0293C151.93 24.0293 152.272 23.9473 152.568 23.7832C152.865 23.6191 153.099 23.4186 153.272 23.1816C153.45 22.9447 153.546 22.7145 153.56 22.4912L154.1 23.0996C154.068 23.291 153.981 23.5029 153.84 23.7354C153.699 23.9678 153.509 24.1911 153.272 24.4053C153.04 24.6149 152.762 24.7904 152.438 24.9316C152.119 25.0684 151.759 25.1367 151.358 25.1367C150.857 25.1367 150.417 25.0387 150.039 24.8428C149.665 24.6468 149.374 24.3848 149.164 24.0566C148.959 23.724 148.856 23.3525 148.856 22.9424C148.856 22.5459 148.934 22.1973 149.089 21.8965C149.244 21.5911 149.467 21.3382 149.759 21.1377C150.05 20.9326 150.401 20.7777 150.812 20.6729C151.222 20.568 151.68 20.5156 152.186 20.5156H153.655ZM161.537 14.5V25H160.266V14.5H161.537ZM167.929 23.7354V19.9277C167.929 19.6361 167.869 19.3831 167.751 19.1689C167.637 18.9502 167.464 18.7816 167.231 18.6631C166.999 18.5446 166.712 18.4854 166.37 18.4854C166.051 18.4854 165.771 18.54 165.529 18.6494C165.292 18.7588 165.105 18.9023 164.969 19.0801C164.837 19.2578 164.771 19.4492 164.771 19.6543H163.506C163.506 19.39 163.574 19.1279 163.711 18.8682C163.848 18.6084 164.044 18.3737 164.299 18.1641C164.559 17.9499 164.868 17.7812 165.229 17.6582C165.593 17.5306 165.999 17.4668 166.445 17.4668C166.983 17.4668 167.457 17.5579 167.867 17.7402C168.282 17.9225 168.605 18.1982 168.838 18.5674C169.075 18.932 169.193 19.39 169.193 19.9414V23.3867C169.193 23.6328 169.214 23.8949 169.255 24.1729C169.3 24.4508 169.367 24.6901 169.453 24.8906V25H168.134C168.07 24.8542 168.02 24.6605 167.983 24.4189C167.947 24.1729 167.929 23.945 167.929 23.7354ZM168.147 20.5156L168.161 21.4043H166.883C166.523 21.4043 166.201 21.4339 165.919 21.4932C165.636 21.5479 165.399 21.6322 165.208 21.7461C165.017 21.86 164.871 22.0036 164.771 22.1768C164.67 22.3454 164.62 22.5436 164.62 22.7715C164.62 23.0039 164.673 23.2158 164.777 23.4072C164.882 23.5986 165.039 23.7513 165.249 23.8652C165.463 23.9746 165.725 24.0293 166.035 24.0293C166.423 24.0293 166.764 23.9473 167.061 23.7832C167.357 23.6191 167.591 23.4186 167.765 23.1816C167.942 22.9447 168.038 22.7145 168.052 22.4912L168.592 23.0996C168.56 23.291 168.473 23.5029 168.332 23.7354C168.191 23.9678 168.002 24.1911 167.765 24.4053C167.532 24.6149 167.254 24.7904 166.931 24.9316C166.612 25.0684 166.252 25.1367 165.851 25.1367C165.349 25.1367 164.91 25.0387 164.531 24.8428C164.158 24.6468 163.866 24.3848 163.656 24.0566C163.451 23.724 163.349 23.3525 163.349 22.9424C163.349 22.5459 163.426 22.1973 163.581 21.8965C163.736 21.5911 163.959 21.3382 164.251 21.1377C164.543 20.9326 164.894 20.7777 165.304 20.6729C165.714 20.568 166.172 20.5156 166.678 20.5156H168.147ZM179.017 23.7354V19.9277C179.017 19.6361 178.957 19.3831 178.839 19.1689C178.725 18.9502 178.552 18.7816 178.319 18.6631C178.087 18.5446 177.8 18.4854 177.458 18.4854C177.139 18.4854 176.859 18.54 176.617 18.6494C176.38 18.7588 176.193 18.9023 176.057 19.0801C175.924 19.2578 175.858 19.4492 175.858 19.6543H174.594C174.594 19.39 174.662 19.1279 174.799 18.8682C174.936 18.6084 175.132 18.3737 175.387 18.1641C175.646 17.9499 175.956 17.7812 176.316 17.6582C176.681 17.5306 177.087 17.4668 177.533 17.4668C178.071 17.4668 178.545 17.5579 178.955 17.7402C179.37 17.9225 179.693 18.1982 179.926 18.5674C180.163 18.932 180.281 19.39 180.281 19.9414V23.3867C180.281 23.6328 180.302 23.8949 180.343 24.1729C180.388 24.4508 180.454 24.6901 180.541 24.8906V25H179.222C179.158 24.8542 179.108 24.6605 179.071 24.4189C179.035 24.1729 179.017 23.945 179.017 23.7354ZM179.235 20.5156L179.249 21.4043H177.971C177.611 21.4043 177.289 21.4339 177.007 21.4932C176.724 21.5479 176.487 21.6322 176.296 21.7461C176.104 21.86 175.959 22.0036 175.858 22.1768C175.758 22.3454 175.708 22.5436 175.708 22.7715C175.708 23.0039 175.76 23.2158 175.865 23.4072C175.97 23.5986 176.127 23.7513 176.337 23.8652C176.551 23.9746 176.813 24.0293 177.123 24.0293C177.51 24.0293 177.852 23.9473 178.148 23.7832C178.445 23.6191 178.679 23.4186 178.853 23.1816C179.03 22.9447 179.126 22.7145 179.14 22.4912L179.68 23.0996C179.648 23.291 179.561 23.5029 179.42 23.7354C179.279 23.9678 179.09 24.1911 178.853 24.4053C178.62 24.6149 178.342 24.7904 178.019 24.9316C177.7 25.0684 177.34 25.1367 176.938 25.1367C176.437 25.1367 175.997 25.0387 175.619 24.8428C175.245 24.6468 174.954 24.3848 174.744 24.0566C174.539 23.724 174.437 23.3525 174.437 22.9424C174.437 22.5459 174.514 22.1973 174.669 21.8965C174.824 21.5911 175.047 21.3382 175.339 21.1377C175.631 20.9326 175.981 20.7777 176.392 20.6729C176.802 20.568 177.26 20.5156 177.766 20.5156H179.235ZM183.535 19.0254V27.8438H182.264V17.6035H183.426L183.535 19.0254ZM188.519 21.2402V21.3838C188.519 21.9215 188.455 22.4206 188.327 22.8809C188.2 23.3366 188.013 23.7331 187.767 24.0703C187.525 24.4076 187.227 24.6696 186.871 24.8564C186.516 25.0433 186.108 25.1367 185.647 25.1367C185.178 25.1367 184.763 25.0592 184.403 24.9043C184.043 24.7493 183.738 24.5238 183.487 24.2275C183.237 23.9313 183.036 23.5758 182.886 23.1611C182.74 22.7464 182.64 22.2793 182.585 21.7598V20.9941C182.64 20.4473 182.742 19.9574 182.893 19.5244C183.043 19.0915 183.241 18.7223 183.487 18.417C183.738 18.1071 184.041 17.8724 184.396 17.7129C184.752 17.5488 185.162 17.4668 185.627 17.4668C186.092 17.4668 186.504 17.5579 186.864 17.7402C187.224 17.918 187.527 18.1732 187.773 18.5059C188.02 18.8385 188.204 19.2373 188.327 19.7021C188.455 20.1624 188.519 20.6751 188.519 21.2402ZM187.247 21.3838V21.2402C187.247 20.8711 187.208 20.5247 187.131 20.2012C187.053 19.873 186.933 19.5859 186.769 19.3398C186.609 19.0892 186.404 18.8932 186.153 18.752C185.903 18.6061 185.604 18.5332 185.258 18.5332C184.939 18.5332 184.661 18.5879 184.424 18.6973C184.191 18.8066 183.993 18.9548 183.829 19.1416C183.665 19.3239 183.531 19.5335 183.426 19.7705C183.326 20.0029 183.25 20.2445 183.2 20.4951V22.2656C183.291 22.5846 183.419 22.8854 183.583 23.168C183.747 23.446 183.966 23.6715 184.239 23.8447C184.513 24.0133 184.857 24.0977 185.271 24.0977C185.613 24.0977 185.907 24.027 186.153 23.8857C186.404 23.7399 186.609 23.5417 186.769 23.291C186.933 23.0404 187.053 22.7533 187.131 22.4297C187.208 22.1016 187.247 21.7529 187.247 21.3838ZM191.396 19.0254V27.8438H190.125V17.6035H191.287L191.396 19.0254ZM196.38 21.2402V21.3838C196.38 21.9215 196.316 22.4206 196.188 22.8809C196.061 23.3366 195.874 23.7331 195.628 24.0703C195.386 24.4076 195.088 24.6696 194.732 24.8564C194.377 25.0433 193.969 25.1367 193.509 25.1367C193.039 25.1367 192.625 25.0592 192.265 24.9043C191.905 24.7493 191.599 24.5238 191.349 24.2275C191.098 23.9313 190.897 23.5758 190.747 23.1611C190.601 22.7464 190.501 22.2793 190.446 21.7598V20.9941C190.501 20.4473 190.604 19.9574 190.754 19.5244C190.904 19.0915 191.103 18.7223 191.349 18.417C191.599 18.1071 191.902 17.8724 192.258 17.7129C192.613 17.5488 193.023 17.4668 193.488 17.4668C193.953 17.4668 194.366 17.5579 194.726 17.7402C195.086 17.918 195.389 18.1732 195.635 18.5059C195.881 18.8385 196.065 19.2373 196.188 19.7021C196.316 20.1624 196.38 20.6751 196.38 21.2402ZM195.108 21.3838V21.2402C195.108 20.8711 195.07 20.5247 194.992 20.2012C194.915 19.873 194.794 19.5859 194.63 19.3398C194.47 19.0892 194.265 18.8932 194.015 18.752C193.764 18.6061 193.465 18.5332 193.119 18.5332C192.8 18.5332 192.522 18.5879 192.285 18.6973C192.053 18.8066 191.854 18.9548 191.69 19.1416C191.526 19.3239 191.392 19.5335 191.287 19.7705C191.187 20.0029 191.112 20.2445 191.062 20.4951V22.2656C191.153 22.5846 191.28 22.8854 191.444 23.168C191.608 23.446 191.827 23.6715 192.101 23.8447C192.374 24.0133 192.718 24.0977 193.133 24.0977C193.475 24.0977 193.769 24.027 194.015 23.8857C194.265 23.7399 194.47 23.5417 194.63 23.291C194.794 23.0404 194.915 22.7533 194.992 22.4297C195.07 22.1016 195.108 21.7529 195.108 21.3838ZM202.238 14.5V15.252L202.095 17.7676H201.213L201.22 15.3682V14.5H202.238ZM206.969 15.9287L203.674 25H202.327L206.121 15.0469H206.989L206.969 15.9287ZM209.73 25L206.429 15.9287L206.408 15.0469H207.276L211.084 25H209.73ZM209.56 21.3154V22.3955H203.968V21.3154H209.56ZM216.532 23.0381C216.532 22.8558 216.491 22.6872 216.409 22.5322C216.332 22.3727 216.17 22.2292 215.924 22.1016C215.682 21.9694 215.318 21.8555 214.83 21.7598C214.42 21.6732 214.049 21.5706 213.716 21.4521C213.388 21.3337 213.107 21.1901 212.875 21.0215C212.647 20.8529 212.472 20.6546 212.349 20.4268C212.226 20.1989 212.164 19.9323 212.164 19.627C212.164 19.3353 212.228 19.0596 212.355 18.7998C212.488 18.54 212.672 18.3099 212.909 18.1094C213.151 17.9089 213.44 17.7516 213.777 17.6377C214.115 17.5238 214.491 17.4668 214.905 17.4668C215.498 17.4668 216.004 17.5716 216.423 17.7812C216.842 17.9909 217.163 18.2712 217.387 18.6221C217.61 18.9684 217.722 19.3535 217.722 19.7773H216.457C216.457 19.5723 216.396 19.374 216.272 19.1826C216.154 18.9867 215.979 18.8249 215.746 18.6973C215.518 18.5697 215.238 18.5059 214.905 18.5059C214.554 18.5059 214.27 18.5605 214.051 18.6699C213.837 18.7747 213.679 18.9092 213.579 19.0732C213.483 19.2373 213.436 19.4105 213.436 19.5928C213.436 19.7295 213.458 19.8525 213.504 19.9619C213.554 20.0667 213.641 20.1647 213.764 20.2559C213.887 20.3424 214.06 20.4245 214.283 20.502C214.507 20.5794 214.791 20.6569 215.138 20.7344C215.744 20.8711 216.243 21.0352 216.635 21.2266C217.027 21.418 217.318 21.6527 217.51 21.9307C217.701 22.2087 217.797 22.5459 217.797 22.9424C217.797 23.266 217.729 23.5622 217.592 23.8311C217.46 24.0999 217.266 24.3324 217.011 24.5283C216.76 24.7197 216.459 24.8701 216.108 24.9795C215.762 25.0843 215.372 25.1367 214.939 25.1367C214.288 25.1367 213.736 25.0205 213.285 24.7881C212.834 24.5557 212.492 24.2549 212.26 23.8857C212.027 23.5166 211.911 23.127 211.911 22.7168H213.183C213.201 23.0632 213.301 23.3389 213.483 23.5439C213.666 23.7445 213.889 23.888 214.153 23.9746C214.418 24.0566 214.68 24.0977 214.939 24.0977C215.286 24.0977 215.575 24.0521 215.808 23.9609C216.045 23.8698 216.225 23.7445 216.348 23.585C216.471 23.4255 216.532 23.2432 216.532 23.0381ZM222.527 25.1367C222.012 25.1367 221.545 25.0501 221.126 24.877C220.711 24.6992 220.354 24.4508 220.053 24.1318C219.757 23.8128 219.529 23.4346 219.369 22.9971C219.21 22.5596 219.13 22.0811 219.13 21.5615V21.2744C219.13 20.6729 219.219 20.1374 219.396 19.668C219.574 19.194 219.816 18.793 220.121 18.4648C220.426 18.1367 220.773 17.8883 221.16 17.7197C221.548 17.5511 221.949 17.4668 222.363 17.4668C222.892 17.4668 223.348 17.5579 223.73 17.7402C224.118 17.9225 224.435 18.1777 224.681 18.5059C224.927 18.8294 225.109 19.2122 225.228 19.6543C225.346 20.0918 225.405 20.5703 225.405 21.0898V21.6572H219.882V20.625H224.141V20.5293C224.122 20.2012 224.054 19.8822 223.936 19.5723C223.822 19.2624 223.639 19.0072 223.389 18.8066C223.138 18.6061 222.796 18.5059 222.363 18.5059C222.076 18.5059 221.812 18.5674 221.57 18.6904C221.329 18.8089 221.121 18.9867 220.948 19.2236C220.775 19.4606 220.641 19.75 220.545 20.0918C220.449 20.4336 220.401 20.8278 220.401 21.2744V21.5615C220.401 21.9124 220.449 22.2428 220.545 22.5527C220.645 22.8581 220.789 23.127 220.976 23.3594C221.167 23.5918 221.397 23.7741 221.666 23.9062C221.939 24.0384 222.249 24.1045 222.596 24.1045C223.042 24.1045 223.421 24.0133 223.73 23.8311C224.04 23.6488 224.312 23.4049 224.544 23.0996L225.31 23.708C225.15 23.9495 224.947 24.1797 224.701 24.3984C224.455 24.6172 224.152 24.7949 223.792 24.9316C223.437 25.0684 223.015 25.1367 222.527 25.1367ZM231.188 23.0381C231.188 22.8558 231.147 22.6872 231.065 22.5322C230.988 22.3727 230.826 22.2292 230.58 22.1016C230.339 21.9694 229.974 21.8555 229.486 21.7598C229.076 21.6732 228.705 21.5706 228.372 21.4521C228.044 21.3337 227.764 21.1901 227.531 21.0215C227.303 20.8529 227.128 20.6546 227.005 20.4268C226.882 20.1989 226.82 19.9323 226.82 19.627C226.82 19.3353 226.884 19.0596 227.012 18.7998C227.144 18.54 227.328 18.3099 227.565 18.1094C227.807 17.9089 228.096 17.7516 228.434 17.6377C228.771 17.5238 229.147 17.4668 229.562 17.4668C230.154 17.4668 230.66 17.5716 231.079 17.7812C231.498 17.9909 231.82 18.2712 232.043 18.6221C232.266 18.9684 232.378 19.3535 232.378 19.7773H231.113C231.113 19.5723 231.052 19.374 230.929 19.1826C230.81 18.9867 230.635 18.8249 230.402 18.6973C230.174 18.5697 229.894 18.5059 229.562 18.5059C229.211 18.5059 228.926 18.5605 228.707 18.6699C228.493 18.7747 228.336 18.9092 228.235 19.0732C228.14 19.2373 228.092 19.4105 228.092 19.5928C228.092 19.7295 228.115 19.8525 228.16 19.9619C228.21 20.0667 228.297 20.1647 228.42 20.2559C228.543 20.3424 228.716 20.4245 228.939 20.502C229.163 20.5794 229.448 20.6569 229.794 20.7344C230.4 20.8711 230.899 21.0352 231.291 21.2266C231.683 21.418 231.975 21.6527 232.166 21.9307C232.357 22.2087 232.453 22.5459 232.453 22.9424C232.453 23.266 232.385 23.5622 232.248 23.8311C232.116 24.0999 231.922 24.3324 231.667 24.5283C231.416 24.7197 231.116 24.8701 230.765 24.9795C230.418 25.0843 230.029 25.1367 229.596 25.1367C228.944 25.1367 228.393 25.0205 227.941 24.7881C227.49 24.5557 227.148 24.2549 226.916 23.8857C226.684 23.5166 226.567 23.127 226.567 22.7168H227.839C227.857 23.0632 227.957 23.3389 228.14 23.5439C228.322 23.7445 228.545 23.888 228.81 23.9746C229.074 24.0566 229.336 24.0977 229.596 24.0977C229.942 24.0977 230.231 24.0521 230.464 23.9609C230.701 23.8698 230.881 23.7445 231.004 23.585C231.127 23.4255 231.188 23.2432 231.188 23.0381ZM233.779 21.3838V21.2266C233.779 20.6934 233.857 20.1989 234.012 19.7432C234.167 19.2829 234.39 18.8841 234.682 18.5469C234.973 18.2051 235.326 17.9408 235.741 17.7539C236.156 17.5625 236.621 17.4668 237.136 17.4668C237.655 17.4668 238.122 17.5625 238.537 17.7539C238.956 17.9408 239.312 18.2051 239.604 18.5469C239.9 18.8841 240.125 19.2829 240.28 19.7432C240.435 20.1989 240.513 20.6934 240.513 21.2266V21.3838C240.513 21.917 240.435 22.4115 240.28 22.8672C240.125 23.3229 239.9 23.7217 239.604 24.0635C239.312 24.4007 238.959 24.665 238.544 24.8564C238.134 25.0433 237.669 25.1367 237.149 25.1367C236.63 25.1367 236.163 25.0433 235.748 24.8564C235.333 24.665 234.978 24.4007 234.682 24.0635C234.39 23.7217 234.167 23.3229 234.012 22.8672C233.857 22.4115 233.779 21.917 233.779 21.3838ZM235.044 21.2266V21.3838C235.044 21.7529 235.087 22.1016 235.174 22.4297C235.26 22.7533 235.39 23.0404 235.563 23.291C235.741 23.5417 235.962 23.7399 236.227 23.8857C236.491 24.027 236.799 24.0977 237.149 24.0977C237.496 24.0977 237.799 24.027 238.059 23.8857C238.323 23.7399 238.542 23.5417 238.715 23.291C238.888 23.0404 239.018 22.7533 239.104 22.4297C239.196 22.1016 239.241 21.7529 239.241 21.3838V21.2266C239.241 20.862 239.196 20.5179 239.104 20.1943C239.018 19.8662 238.886 19.5768 238.708 19.3262C238.535 19.071 238.316 18.8704 238.052 18.7246C237.792 18.5788 237.487 18.5059 237.136 18.5059C236.789 18.5059 236.484 18.5788 236.22 18.7246C235.96 18.8704 235.741 19.071 235.563 19.3262C235.39 19.5768 235.26 19.8662 235.174 20.1943C235.087 20.5179 235.044 20.862 235.044 21.2266ZM243.363 18.7656V25H242.099V17.6035H243.329L243.363 18.7656ZM245.674 17.5625L245.667 18.7383C245.562 18.7155 245.462 18.7018 245.366 18.6973C245.275 18.6882 245.17 18.6836 245.052 18.6836C244.76 18.6836 244.503 18.7292 244.279 18.8203C244.056 18.9115 243.867 19.0391 243.712 19.2031C243.557 19.3672 243.434 19.5632 243.343 19.791C243.256 20.0143 243.199 20.2604 243.172 20.5293L242.816 20.7344C242.816 20.2878 242.86 19.8685 242.946 19.4766C243.037 19.0846 243.176 18.7383 243.363 18.4375C243.55 18.1322 243.787 17.8952 244.074 17.7266C244.366 17.5534 244.712 17.4668 245.113 17.4668C245.204 17.4668 245.309 17.4782 245.428 17.501C245.546 17.5192 245.628 17.5397 245.674 17.5625ZM249.775 25.1367C249.26 25.1367 248.793 25.0501 248.374 24.877C247.959 24.6992 247.602 24.4508 247.301 24.1318C247.005 23.8128 246.777 23.4346 246.617 22.9971C246.458 22.5596 246.378 22.0811 246.378 21.5615V21.2744C246.378 20.6729 246.467 20.1374 246.645 19.668C246.822 19.194 247.064 18.793 247.369 18.4648C247.674 18.1367 248.021 17.8883 248.408 17.7197C248.796 17.5511 249.197 17.4668 249.611 17.4668C250.14 17.4668 250.596 17.5579 250.979 17.7402C251.366 17.9225 251.683 18.1777 251.929 18.5059C252.175 18.8294 252.357 19.2122 252.476 19.6543C252.594 20.0918 252.653 20.5703 252.653 21.0898V21.6572H247.13V20.625H251.389V20.5293C251.37 20.2012 251.302 19.8822 251.184 19.5723C251.07 19.2624 250.887 19.0072 250.637 18.8066C250.386 18.6061 250.044 18.5059 249.611 18.5059C249.324 18.5059 249.06 18.5674 248.818 18.6904C248.577 18.8089 248.369 18.9867 248.196 19.2236C248.023 19.4606 247.889 19.75 247.793 20.0918C247.697 20.4336 247.649 20.8278 247.649 21.2744V21.5615C247.649 21.9124 247.697 22.2428 247.793 22.5527C247.893 22.8581 248.037 23.127 248.224 23.3594C248.415 23.5918 248.645 23.7741 248.914 23.9062C249.188 24.0384 249.497 24.1045 249.844 24.1045C250.29 24.1045 250.669 24.0133 250.979 23.8311C251.288 23.6488 251.56 23.4049 251.792 23.0996L252.558 23.708C252.398 23.9495 252.195 24.1797 251.949 24.3984C251.703 24.6172 251.4 24.7949 251.04 24.9316C250.685 25.0684 250.263 25.1367 249.775 25.1367ZM258.437 23.0381C258.437 22.8558 258.396 22.6872 258.313 22.5322C258.236 22.3727 258.074 22.2292 257.828 22.1016C257.587 21.9694 257.222 21.8555 256.734 21.7598C256.324 21.6732 255.953 21.5706 255.62 21.4521C255.292 21.3337 255.012 21.1901 254.779 21.0215C254.551 20.8529 254.376 20.6546 254.253 20.4268C254.13 20.1989 254.068 19.9323 254.068 19.627C254.068 19.3353 254.132 19.0596 254.26 18.7998C254.392 18.54 254.576 18.3099 254.813 18.1094C255.055 17.9089 255.344 17.7516 255.682 17.6377C256.019 17.5238 256.395 17.4668 256.81 17.4668C257.402 17.4668 257.908 17.5716 258.327 17.7812C258.746 17.9909 259.068 18.2712 259.291 18.6221C259.514 18.9684 259.626 19.3535 259.626 19.7773H258.361C258.361 19.5723 258.3 19.374 258.177 19.1826C258.058 18.9867 257.883 18.8249 257.65 18.6973C257.423 18.5697 257.142 18.5059 256.81 18.5059C256.459 18.5059 256.174 18.5605 255.955 18.6699C255.741 18.7747 255.584 18.9092 255.483 19.0732C255.388 19.2373 255.34 19.4105 255.34 19.5928C255.34 19.7295 255.363 19.8525 255.408 19.9619C255.458 20.0667 255.545 20.1647 255.668 20.2559C255.791 20.3424 255.964 20.4245 256.188 20.502C256.411 20.5794 256.696 20.6569 257.042 20.7344C257.648 20.8711 258.147 21.0352 258.539 21.2266C258.931 21.418 259.223 21.6527 259.414 21.9307C259.605 22.2087 259.701 22.5459 259.701 22.9424C259.701 23.266 259.633 23.5622 259.496 23.8311C259.364 24.0999 259.17 24.3324 258.915 24.5283C258.664 24.7197 258.364 24.8701 258.013 24.9795C257.666 25.0843 257.277 25.1367 256.844 25.1367C256.192 25.1367 255.641 25.0205 255.189 24.7881C254.738 24.5557 254.396 24.2549 254.164 23.8857C253.932 23.5166 253.815 23.127 253.815 22.7168H255.087C255.105 23.0632 255.205 23.3389 255.388 23.5439C255.57 23.7445 255.793 23.888 256.058 23.9746C256.322 24.0566 256.584 24.0977 256.844 24.0977C257.19 24.0977 257.479 24.0521 257.712 23.9609C257.949 23.8698 258.129 23.7445 258.252 23.585C258.375 23.4255 258.437 23.2432 258.437 23.0381ZM262.135 14.5V15.252L261.991 17.7676H261.109L261.116 15.3682V14.5H262.135ZM270.242 24.0977C270.543 24.0977 270.821 24.0361 271.076 23.9131C271.331 23.79 271.541 23.6214 271.705 23.4072C271.869 23.1885 271.963 22.9401 271.985 22.6621H273.188C273.166 23.0996 273.018 23.5075 272.744 23.8857C272.475 24.2594 272.122 24.5625 271.685 24.7949C271.247 25.0228 270.766 25.1367 270.242 25.1367C269.686 25.1367 269.201 25.0387 268.786 24.8428C268.376 24.6468 268.034 24.3779 267.761 24.0361C267.492 23.6943 267.289 23.3024 267.152 22.8604C267.02 22.4137 266.954 21.9421 266.954 21.4453V21.1582C266.954 20.6615 267.02 20.1921 267.152 19.75C267.289 19.3034 267.492 18.9092 267.761 18.5674C268.034 18.2256 268.376 17.9567 268.786 17.7607C269.201 17.5648 269.686 17.4668 270.242 17.4668C270.821 17.4668 271.327 17.5853 271.76 17.8223C272.193 18.0547 272.532 18.3737 272.778 18.7793C273.029 19.1803 273.166 19.6361 273.188 20.1465H271.985C271.963 19.8411 271.876 19.5654 271.726 19.3193C271.58 19.0732 271.379 18.8773 271.124 18.7314C270.873 18.5811 270.579 18.5059 270.242 18.5059C269.855 18.5059 269.529 18.5833 269.265 18.7383C269.005 18.8887 268.798 19.0938 268.643 19.3535C268.492 19.6087 268.383 19.8936 268.314 20.208C268.251 20.5179 268.219 20.8346 268.219 21.1582V21.4453C268.219 21.7689 268.251 22.0879 268.314 22.4023C268.378 22.7168 268.485 23.0016 268.636 23.2568C268.791 23.512 268.998 23.7171 269.258 23.8721C269.522 24.0225 269.85 24.0977 270.242 24.0977ZM274.275 21.3838V21.2266C274.275 20.6934 274.353 20.1989 274.508 19.7432C274.663 19.2829 274.886 18.8841 275.178 18.5469C275.469 18.2051 275.823 17.9408 276.237 17.7539C276.652 17.5625 277.117 17.4668 277.632 17.4668C278.151 17.4668 278.618 17.5625 279.033 17.7539C279.452 17.9408 279.808 18.2051 280.1 18.5469C280.396 18.8841 280.621 19.2829 280.776 19.7432C280.931 20.1989 281.009 20.6934 281.009 21.2266V21.3838C281.009 21.917 280.931 22.4115 280.776 22.8672C280.621 23.3229 280.396 23.7217 280.1 24.0635C279.808 24.4007 279.455 24.665 279.04 24.8564C278.63 25.0433 278.165 25.1367 277.646 25.1367C277.126 25.1367 276.659 25.0433 276.244 24.8564C275.829 24.665 275.474 24.4007 275.178 24.0635C274.886 23.7217 274.663 23.3229 274.508 22.8672C274.353 22.4115 274.275 21.917 274.275 21.3838ZM275.54 21.2266V21.3838C275.54 21.7529 275.583 22.1016 275.67 22.4297C275.757 22.7533 275.886 23.0404 276.06 23.291C276.237 23.5417 276.458 23.7399 276.723 23.8857C276.987 24.027 277.295 24.0977 277.646 24.0977C277.992 24.0977 278.295 24.027 278.555 23.8857C278.819 23.7399 279.038 23.5417 279.211 23.291C279.384 23.0404 279.514 22.7533 279.601 22.4297C279.692 22.1016 279.737 21.7529 279.737 21.3838V21.2266C279.737 20.862 279.692 20.5179 279.601 20.1943C279.514 19.8662 279.382 19.5768 279.204 19.3262C279.031 19.071 278.812 18.8704 278.548 18.7246C278.288 18.5788 277.983 18.5059 277.632 18.5059C277.285 18.5059 276.98 18.5788 276.716 18.7246C276.456 18.8704 276.237 19.071 276.06 19.3262C275.886 19.5768 275.757 19.8662 275.67 20.1943C275.583 20.5179 275.54 20.862 275.54 21.2266ZM283.859 19.1826V25H282.595V17.6035H283.791L283.859 19.1826ZM283.559 21.0215L283.032 21.001C283.037 20.4951 283.112 20.028 283.258 19.5996C283.404 19.1667 283.609 18.7907 283.873 18.4717C284.137 18.1527 284.452 17.9066 284.816 17.7334C285.186 17.5557 285.593 17.4668 286.04 17.4668C286.405 17.4668 286.733 17.5169 287.024 17.6172C287.316 17.7129 287.564 17.8678 287.77 18.082C287.979 18.2962 288.139 18.5742 288.248 18.916C288.357 19.2533 288.412 19.6657 288.412 20.1533V25H287.141V20.1396C287.141 19.7523 287.084 19.4424 286.97 19.21C286.856 18.973 286.689 18.8021 286.471 18.6973C286.252 18.5879 285.983 18.5332 285.664 18.5332C285.35 18.5332 285.062 18.5993 284.803 18.7314C284.548 18.8636 284.326 19.0459 284.14 19.2783C283.957 19.5107 283.814 19.7773 283.709 20.0781C283.609 20.3743 283.559 20.6888 283.559 21.0215ZM296.902 17.6035V18.5742H292.903V17.6035H296.902ZM294.257 15.8057H295.521V23.168C295.521 23.4186 295.56 23.6077 295.638 23.7354C295.715 23.863 295.815 23.9473 295.938 23.9883C296.062 24.0293 296.194 24.0498 296.335 24.0498C296.44 24.0498 296.549 24.0407 296.663 24.0225C296.782 23.9997 296.87 23.9814 296.93 23.9678L296.937 25C296.836 25.0319 296.704 25.0615 296.54 25.0889C296.381 25.1208 296.187 25.1367 295.959 25.1367C295.649 25.1367 295.364 25.0752 295.104 24.9521C294.845 24.8291 294.637 24.624 294.482 24.3369C294.332 24.0452 294.257 23.6533 294.257 23.1611V15.8057ZM302.911 23.291V17.6035H304.183V25H302.973L302.911 23.291ZM303.15 21.7324L303.677 21.7188C303.677 22.2109 303.624 22.6667 303.52 23.0859C303.419 23.5007 303.255 23.8607 303.027 24.166C302.799 24.4714 302.501 24.7106 302.132 24.8838C301.763 25.0524 301.314 25.1367 300.785 25.1367C300.425 25.1367 300.095 25.0843 299.794 24.9795C299.498 24.8747 299.243 24.7129 299.028 24.4941C298.814 24.2754 298.648 23.9906 298.529 23.6396C298.415 23.2887 298.358 22.8672 298.358 22.375V17.6035H299.623V22.3887C299.623 22.7214 299.66 22.9971 299.732 23.2158C299.81 23.43 299.912 23.6009 300.04 23.7285C300.172 23.8516 300.318 23.9382 300.478 23.9883C300.642 24.0384 300.81 24.0635 300.983 24.0635C301.521 24.0635 301.947 23.9609 302.262 23.7559C302.576 23.5462 302.802 23.266 302.938 22.915C303.08 22.5596 303.15 22.1654 303.15 21.7324ZM314.108 23.291V17.6035H315.38V25H314.17L314.108 23.291ZM314.348 21.7324L314.874 21.7188C314.874 22.2109 314.822 22.6667 314.717 23.0859C314.617 23.5007 314.452 23.8607 314.225 24.166C313.997 24.4714 313.698 24.7106 313.329 24.8838C312.96 25.0524 312.511 25.1367 311.982 25.1367C311.622 25.1367 311.292 25.0843 310.991 24.9795C310.695 24.8747 310.44 24.7129 310.226 24.4941C310.011 24.2754 309.845 23.9906 309.727 23.6396C309.613 23.2887 309.556 22.8672 309.556 22.375V17.6035H310.82V22.3887C310.82 22.7214 310.857 22.9971 310.93 23.2158C311.007 23.43 311.11 23.6009 311.237 23.7285C311.369 23.8516 311.515 23.9382 311.675 23.9883C311.839 24.0384 312.007 24.0635 312.181 24.0635C312.718 24.0635 313.145 23.9609 313.459 23.7559C313.773 23.5462 313.999 23.266 314.136 22.915C314.277 22.5596 314.348 22.1654 314.348 21.7324ZM321.614 23.0381C321.614 22.8558 321.573 22.6872 321.491 22.5322C321.414 22.3727 321.252 22.2292 321.006 22.1016C320.764 21.9694 320.4 21.8555 319.912 21.7598C319.502 21.6732 319.131 21.5706 318.798 21.4521C318.47 21.3337 318.189 21.1901 317.957 21.0215C317.729 20.8529 317.554 20.6546 317.431 20.4268C317.308 20.1989 317.246 19.9323 317.246 19.627C317.246 19.3353 317.31 19.0596 317.438 18.7998C317.57 18.54 317.754 18.3099 317.991 18.1094C318.233 17.9089 318.522 17.7516 318.859 17.6377C319.197 17.5238 319.573 17.4668 319.987 17.4668C320.58 17.4668 321.086 17.5716 321.505 17.7812C321.924 17.9909 322.245 18.2712 322.469 18.6221C322.692 18.9684 322.804 19.3535 322.804 19.7773H321.539C321.539 19.5723 321.478 19.374 321.354 19.1826C321.236 18.9867 321.061 18.8249 320.828 18.6973C320.6 18.5697 320.32 18.5059 319.987 18.5059C319.636 18.5059 319.352 18.5605 319.133 18.6699C318.919 18.7747 318.761 18.9092 318.661 19.0732C318.565 19.2373 318.518 19.4105 318.518 19.5928C318.518 19.7295 318.54 19.8525 318.586 19.9619C318.636 20.0667 318.723 20.1647 318.846 20.2559C318.969 20.3424 319.142 20.4245 319.365 20.502C319.589 20.5794 319.873 20.6569 320.22 20.7344C320.826 20.8711 321.325 21.0352 321.717 21.2266C322.109 21.418 322.4 21.6527 322.592 21.9307C322.783 22.2087 322.879 22.5459 322.879 22.9424C322.879 23.266 322.811 23.5622 322.674 23.8311C322.542 24.0999 322.348 24.3324 322.093 24.5283C321.842 24.7197 321.541 24.8701 321.19 24.9795C320.844 25.0843 320.454 25.1367 320.021 25.1367C319.37 25.1367 318.818 25.0205 318.367 24.7881C317.916 24.5557 317.574 24.2549 317.342 23.8857C317.109 23.5166 316.993 23.127 316.993 22.7168H318.265C318.283 23.0632 318.383 23.3389 318.565 23.5439C318.748 23.7445 318.971 23.888 319.235 23.9746C319.5 24.0566 319.762 24.0977 320.021 24.0977C320.368 24.0977 320.657 24.0521 320.89 23.9609C321.127 23.8698 321.307 23.7445 321.43 23.585C321.553 23.4255 321.614 23.2432 321.614 23.0381ZM329.065 23.291V17.6035H330.337V25H329.127L329.065 23.291ZM329.305 21.7324L329.831 21.7188C329.831 22.2109 329.779 22.6667 329.674 23.0859C329.574 23.5007 329.41 23.8607 329.182 24.166C328.954 24.4714 328.655 24.7106 328.286 24.8838C327.917 25.0524 327.468 25.1367 326.939 25.1367C326.579 25.1367 326.249 25.0843 325.948 24.9795C325.652 24.8747 325.397 24.7129 325.183 24.4941C324.968 24.2754 324.802 23.9906 324.684 23.6396C324.57 23.2887 324.513 22.8672 324.513 22.375V17.6035H325.777V22.3887C325.777 22.7214 325.814 22.9971 325.887 23.2158C325.964 23.43 326.067 23.6009 326.194 23.7285C326.326 23.8516 326.472 23.9382 326.632 23.9883C326.796 24.0384 326.965 24.0635 327.138 24.0635C327.675 24.0635 328.102 23.9609 328.416 23.7559C328.73 23.5462 328.956 23.266 329.093 22.915C329.234 22.5596 329.305 22.1654 329.305 21.7324ZM336.626 23.7354V19.9277C336.626 19.6361 336.567 19.3831 336.448 19.1689C336.334 18.9502 336.161 18.7816 335.929 18.6631C335.696 18.5446 335.409 18.4854 335.067 18.4854C334.748 18.4854 334.468 18.54 334.227 18.6494C333.99 18.7588 333.803 18.9023 333.666 19.0801C333.534 19.2578 333.468 19.4492 333.468 19.6543H332.203C332.203 19.39 332.271 19.1279 332.408 18.8682C332.545 18.6084 332.741 18.3737 332.996 18.1641C333.256 17.9499 333.566 17.7812 333.926 17.6582C334.29 17.5306 334.696 17.4668 335.143 17.4668C335.68 17.4668 336.154 17.5579 336.564 17.7402C336.979 17.9225 337.303 18.1982 337.535 18.5674C337.772 18.932 337.891 19.39 337.891 19.9414V23.3867C337.891 23.6328 337.911 23.8949 337.952 24.1729C337.998 24.4508 338.064 24.6901 338.15 24.8906V25H336.831C336.767 24.8542 336.717 24.6605 336.681 24.4189C336.644 24.1729 336.626 23.945 336.626 23.7354ZM336.845 20.5156L336.858 21.4043H335.58C335.22 21.4043 334.899 21.4339 334.616 21.4932C334.334 21.5479 334.097 21.6322 333.905 21.7461C333.714 21.86 333.568 22.0036 333.468 22.1768C333.368 22.3454 333.317 22.5436 333.317 22.7715C333.317 23.0039 333.37 23.2158 333.475 23.4072C333.579 23.5986 333.737 23.7513 333.946 23.8652C334.16 23.9746 334.423 24.0293 334.732 24.0293C335.12 24.0293 335.462 23.9473 335.758 23.7832C336.054 23.6191 336.289 23.4186 336.462 23.1816C336.64 22.9447 336.735 22.7145 336.749 22.4912L337.289 23.0996C337.257 23.291 337.171 23.5029 337.029 23.7354C336.888 23.9678 336.699 24.1911 336.462 24.4053C336.229 24.6149 335.951 24.7904 335.628 24.9316C335.309 25.0684 334.949 25.1367 334.548 25.1367C334.047 25.1367 333.607 25.0387 333.229 24.8428C332.855 24.6468 332.563 24.3848 332.354 24.0566C332.148 23.724 332.046 23.3525 332.046 22.9424C332.046 22.5459 332.123 22.1973 332.278 21.8965C332.433 21.5911 332.657 21.3382 332.948 21.1377C333.24 20.9326 333.591 20.7777 334.001 20.6729C334.411 20.568 334.869 20.5156 335.375 20.5156H336.845ZM341.145 18.7656V25H339.88V17.6035H341.11L341.145 18.7656ZM343.455 17.5625L343.448 18.7383C343.343 18.7155 343.243 18.7018 343.147 18.6973C343.056 18.6882 342.951 18.6836 342.833 18.6836C342.541 18.6836 342.284 18.7292 342.061 18.8203C341.837 18.9115 341.648 19.0391 341.493 19.2031C341.338 19.3672 341.215 19.5632 341.124 19.791C341.037 20.0143 340.98 20.2604 340.953 20.5293L340.598 20.7344C340.598 20.2878 340.641 19.8685 340.728 19.4766C340.819 19.0846 340.958 18.7383 341.145 18.4375C341.331 18.1322 341.568 17.8952 341.855 17.7266C342.147 17.5534 342.493 17.4668 342.895 17.4668C342.986 17.4668 343.09 17.4782 343.209 17.501C343.327 17.5192 343.41 17.5397 343.455 17.5625ZM345.998 17.6035V25H344.727V17.6035H345.998ZM344.631 15.6416C344.631 15.4365 344.692 15.2633 344.815 15.1221C344.943 14.9808 345.13 14.9102 345.376 14.9102C345.618 14.9102 345.802 14.9808 345.93 15.1221C346.062 15.2633 346.128 15.4365 346.128 15.6416C346.128 15.8376 346.062 16.0062 345.93 16.1475C345.802 16.2842 345.618 16.3525 345.376 16.3525C345.13 16.3525 344.943 16.2842 344.815 16.1475C344.692 16.0062 344.631 15.8376 344.631 15.6416ZM347.693 21.3838V21.2266C347.693 20.6934 347.771 20.1989 347.926 19.7432C348.081 19.2829 348.304 18.8841 348.596 18.5469C348.887 18.2051 349.241 17.9408 349.655 17.7539C350.07 17.5625 350.535 17.4668 351.05 17.4668C351.569 17.4668 352.036 17.5625 352.451 17.7539C352.87 17.9408 353.226 18.2051 353.518 18.5469C353.814 18.8841 354.039 19.2829 354.194 19.7432C354.349 20.1989 354.427 20.6934 354.427 21.2266V21.3838C354.427 21.917 354.349 22.4115 354.194 22.8672C354.039 23.3229 353.814 23.7217 353.518 24.0635C353.226 24.4007 352.873 24.665 352.458 24.8564C352.048 25.0433 351.583 25.1367 351.063 25.1367C350.544 25.1367 350.077 25.0433 349.662 24.8564C349.247 24.665 348.892 24.4007 348.596 24.0635C348.304 23.7217 348.081 23.3229 347.926 22.8672C347.771 22.4115 347.693 21.917 347.693 21.3838ZM348.958 21.2266V21.3838C348.958 21.7529 349.001 22.1016 349.088 22.4297C349.174 22.7533 349.304 23.0404 349.478 23.291C349.655 23.5417 349.876 23.7399 350.141 23.8857C350.405 24.027 350.713 24.0977 351.063 24.0977C351.41 24.0977 351.713 24.027 351.973 23.8857C352.237 23.7399 352.456 23.5417 352.629 23.291C352.802 23.0404 352.932 22.7533 353.019 22.4297C353.11 22.1016 353.155 21.7529 353.155 21.3838V21.2266C353.155 20.862 353.11 20.5179 353.019 20.1943C352.932 19.8662 352.8 19.5768 352.622 19.3262C352.449 19.071 352.23 18.8704 351.966 18.7246C351.706 18.5788 351.401 18.5059 351.05 18.5059C350.703 18.5059 350.398 18.5788 350.134 18.7246C349.874 18.8704 349.655 19.071 349.478 19.3262C349.304 19.5768 349.174 19.8662 349.088 20.1943C349.001 20.5179 348.958 20.862 348.958 21.2266ZM361.563 24.2344L363.621 17.6035H364.975L362.008 26.1416C361.939 26.3239 361.848 26.5199 361.734 26.7295C361.625 26.9437 361.484 27.1465 361.311 27.3379C361.137 27.5293 360.928 27.6842 360.682 27.8027C360.44 27.9258 360.151 27.9873 359.813 27.9873C359.713 27.9873 359.586 27.9736 359.431 27.9463C359.276 27.9189 359.166 27.8962 359.103 27.8779L359.096 26.8525C359.132 26.8571 359.189 26.8617 359.267 26.8662C359.349 26.8753 359.406 26.8799 359.438 26.8799C359.725 26.8799 359.968 26.8411 360.169 26.7637C360.369 26.6908 360.538 26.5654 360.675 26.3877C360.816 26.2145 360.937 25.9753 361.037 25.6699L361.563 24.2344ZM360.053 17.6035L361.974 23.3457L362.302 24.6787L361.393 25.1436L358.672 17.6035H360.053ZM372.549 24.0977C372.85 24.0977 373.128 24.0361 373.383 23.9131C373.638 23.79 373.848 23.6214 374.012 23.4072C374.176 23.1885 374.269 22.9401 374.292 22.6621H375.495C375.472 23.0996 375.324 23.5075 375.051 23.8857C374.782 24.2594 374.429 24.5625 373.991 24.7949C373.554 25.0228 373.073 25.1367 372.549 25.1367C371.993 25.1367 371.507 25.0387 371.093 24.8428C370.683 24.6468 370.341 24.3779 370.067 24.0361C369.799 23.6943 369.596 23.3024 369.459 22.8604C369.327 22.4137 369.261 21.9421 369.261 21.4453V21.1582C369.261 20.6615 369.327 20.1921 369.459 19.75C369.596 19.3034 369.799 18.9092 370.067 18.5674C370.341 18.2256 370.683 17.9567 371.093 17.7607C371.507 17.5648 371.993 17.4668 372.549 17.4668C373.128 17.4668 373.633 17.5853 374.066 17.8223C374.499 18.0547 374.839 18.3737 375.085 18.7793C375.336 19.1803 375.472 19.6361 375.495 20.1465H374.292C374.269 19.8411 374.183 19.5654 374.032 19.3193C373.886 19.0732 373.686 18.8773 373.431 18.7314C373.18 18.5811 372.886 18.5059 372.549 18.5059C372.161 18.5059 371.836 18.5833 371.571 18.7383C371.312 18.8887 371.104 19.0938 370.949 19.3535C370.799 19.6087 370.689 19.8936 370.621 20.208C370.557 20.5179 370.525 20.8346 370.525 21.1582V21.4453C370.525 21.7689 370.557 22.0879 370.621 22.4023C370.685 22.7168 370.792 23.0016 370.942 23.2568C371.097 23.512 371.305 23.7171 371.564 23.8721C371.829 24.0225 372.157 24.0977 372.549 24.0977ZM378.291 14.5V25H377.02V14.5H378.291ZM384.683 23.7354V19.9277C384.683 19.6361 384.623 19.3831 384.505 19.1689C384.391 18.9502 384.218 18.7816 383.985 18.6631C383.753 18.5446 383.466 18.4854 383.124 18.4854C382.805 18.4854 382.525 18.54 382.283 18.6494C382.046 18.7588 381.859 18.9023 381.723 19.0801C381.59 19.2578 381.524 19.4492 381.524 19.6543H380.26C380.26 19.39 380.328 19.1279 380.465 18.8682C380.602 18.6084 380.798 18.3737 381.053 18.1641C381.312 17.9499 381.622 17.7812 381.982 17.6582C382.347 17.5306 382.753 17.4668 383.199 17.4668C383.737 17.4668 384.211 17.5579 384.621 17.7402C385.036 17.9225 385.359 18.1982 385.592 18.5674C385.829 18.932 385.947 19.39 385.947 19.9414V23.3867C385.947 23.6328 385.968 23.8949 386.009 24.1729C386.054 24.4508 386.12 24.6901 386.207 24.8906V25H384.888C384.824 24.8542 384.774 24.6605 384.737 24.4189C384.701 24.1729 384.683 23.945 384.683 23.7354ZM384.901 20.5156L384.915 21.4043H383.637C383.277 21.4043 382.955 21.4339 382.673 21.4932C382.39 21.5479 382.153 21.6322 381.962 21.7461C381.771 21.86 381.625 22.0036 381.524 22.1768C381.424 22.3454 381.374 22.5436 381.374 22.7715C381.374 23.0039 381.426 23.2158 381.531 23.4072C381.636 23.5986 381.793 23.7513 382.003 23.8652C382.217 23.9746 382.479 24.0293 382.789 24.0293C383.176 24.0293 383.518 23.9473 383.814 23.7832C384.111 23.6191 384.345 23.4186 384.519 23.1816C384.696 22.9447 384.792 22.7145 384.806 22.4912L385.346 23.0996C385.314 23.291 385.227 23.5029 385.086 23.7354C384.945 23.9678 384.756 24.1911 384.519 24.4053C384.286 24.6149 384.008 24.7904 383.685 24.9316C383.366 25.0684 383.006 25.1367 382.604 25.1367C382.103 25.1367 381.663 25.0387 381.285 24.8428C380.911 24.6468 380.62 24.3848 380.41 24.0566C380.205 23.724 380.103 23.3525 380.103 22.9424C380.103 22.5459 380.18 22.1973 380.335 21.8965C380.49 21.5911 380.713 21.3382 381.005 21.1377C381.297 20.9326 381.647 20.7777 382.058 20.6729C382.468 20.568 382.926 20.5156 383.432 20.5156H384.901ZM390.076 23.8584L392.1 17.6035H393.392L390.732 25H389.885L390.076 23.8584ZM388.388 17.6035L390.473 23.8926L390.616 25H389.769L387.089 17.6035H388.388ZM397.582 25.1367C397.067 25.1367 396.6 25.0501 396.181 24.877C395.766 24.6992 395.408 24.4508 395.107 24.1318C394.811 23.8128 394.583 23.4346 394.424 22.9971C394.264 22.5596 394.185 22.0811 394.185 21.5615V21.2744C394.185 20.6729 394.273 20.1374 394.451 19.668C394.629 19.194 394.87 18.793 395.176 18.4648C395.481 18.1367 395.827 17.8883 396.215 17.7197C396.602 17.5511 397.003 17.4668 397.418 17.4668C397.947 17.4668 398.402 17.5579 398.785 17.7402C399.173 17.9225 399.489 18.1777 399.735 18.5059C399.981 18.8294 400.164 19.2122 400.282 19.6543C400.401 20.0918 400.46 20.5703 400.46 21.0898V21.6572H394.937V20.625H399.195V20.5293C399.177 20.2012 399.109 19.8822 398.99 19.5723C398.876 19.2624 398.694 19.0072 398.443 18.8066C398.193 18.6061 397.851 18.5059 397.418 18.5059C397.131 18.5059 396.867 18.5674 396.625 18.6904C396.383 18.8089 396.176 18.9867 396.003 19.2236C395.83 19.4606 395.695 19.75 395.6 20.0918C395.504 20.4336 395.456 20.8278 395.456 21.2744V21.5615C395.456 21.9124 395.504 22.2428 395.6 22.5527C395.7 22.8581 395.843 23.127 396.03 23.3594C396.222 23.5918 396.452 23.7741 396.721 23.9062C396.994 24.0384 397.304 24.1045 397.65 24.1045C398.097 24.1045 398.475 24.0133 398.785 23.8311C399.095 23.6488 399.366 23.4049 399.599 23.0996L400.364 23.708C400.205 23.9495 400.002 24.1797 399.756 24.3984C399.51 24.6172 399.207 24.7949 398.847 24.9316C398.491 25.0684 398.07 25.1367 397.582 25.1367ZM410.071 23.5645V14.5H411.343V25H410.181L410.071 23.5645ZM405.095 21.3838V21.2402C405.095 20.6751 405.163 20.1624 405.3 19.7021C405.441 19.2373 405.639 18.8385 405.895 18.5059C406.154 18.1732 406.462 17.918 406.817 17.7402C407.177 17.5579 407.578 17.4668 408.021 17.4668C408.485 17.4668 408.891 17.5488 409.237 17.7129C409.588 17.8724 409.884 18.1071 410.126 18.417C410.372 18.7223 410.566 19.0915 410.707 19.5244C410.848 19.9574 410.946 20.4473 411.001 20.9941V21.623C410.951 22.1654 410.853 22.653 410.707 23.0859C410.566 23.5189 410.372 23.888 410.126 24.1934C409.884 24.4987 409.588 24.7334 409.237 24.8975C408.886 25.057 408.476 25.1367 408.007 25.1367C407.574 25.1367 407.177 25.0433 406.817 24.8564C406.462 24.6696 406.154 24.4076 405.895 24.0703C405.639 23.7331 405.441 23.3366 405.3 22.8809C405.163 22.4206 405.095 21.9215 405.095 21.3838ZM406.366 21.2402V21.3838C406.366 21.7529 406.403 22.0993 406.476 22.4229C406.553 22.7464 406.672 23.0312 406.831 23.2773C406.991 23.5234 407.193 23.7171 407.439 23.8584C407.686 23.9951 407.979 24.0635 408.321 24.0635C408.741 24.0635 409.085 23.9746 409.354 23.7969C409.627 23.6191 409.846 23.3844 410.01 23.0928C410.174 22.8011 410.301 22.4844 410.393 22.1426V20.4951C410.338 20.2445 410.258 20.0029 410.153 19.7705C410.053 19.5335 409.921 19.3239 409.757 19.1416C409.597 18.9548 409.399 18.8066 409.162 18.6973C408.93 18.5879 408.654 18.5332 408.335 18.5332C407.989 18.5332 407.69 18.6061 407.439 18.752C407.193 18.8932 406.991 19.0892 406.831 19.3398C406.672 19.5859 406.553 19.873 406.476 20.2012C406.403 20.5247 406.366 20.8711 406.366 21.2402ZM416.381 25.1367C415.866 25.1367 415.399 25.0501 414.979 24.877C414.565 24.6992 414.207 24.4508 413.906 24.1318C413.61 23.8128 413.382 23.4346 413.223 22.9971C413.063 22.5596 412.983 22.0811 412.983 21.5615V21.2744C412.983 20.6729 413.072 20.1374 413.25 19.668C413.428 19.194 413.669 18.793 413.975 18.4648C414.28 18.1367 414.626 17.8883 415.014 17.7197C415.401 17.5511 415.802 17.4668 416.217 17.4668C416.745 17.4668 417.201 17.5579 417.584 17.7402C417.971 17.9225 418.288 18.1777 418.534 18.5059C418.78 18.8294 418.963 19.2122 419.081 19.6543C419.2 20.0918 419.259 20.5703 419.259 21.0898V21.6572H413.735V20.625H417.994V20.5293C417.976 20.2012 417.908 19.8822 417.789 19.5723C417.675 19.2624 417.493 19.0072 417.242 18.8066C416.992 18.6061 416.65 18.5059 416.217 18.5059C415.93 18.5059 415.665 18.5674 415.424 18.6904C415.182 18.8089 414.975 18.9867 414.802 19.2236C414.629 19.4606 414.494 19.75 414.398 20.0918C414.303 20.4336 414.255 20.8278 414.255 21.2744V21.5615C414.255 21.9124 414.303 22.2428 414.398 22.5527C414.499 22.8581 414.642 23.127 414.829 23.3594C415.021 23.5918 415.251 23.7741 415.52 23.9062C415.793 24.0384 416.103 24.1045 416.449 24.1045C416.896 24.1045 417.274 24.0133 417.584 23.8311C417.894 23.6488 418.165 23.4049 418.397 23.0996L419.163 23.708C419.004 23.9495 418.801 24.1797 418.555 24.3984C418.309 24.6172 418.006 24.7949 417.646 24.9316C417.29 25.0684 416.868 25.1367 416.381 25.1367ZM428.569 23.7354V19.9277C428.569 19.6361 428.51 19.3831 428.392 19.1689C428.278 18.9502 428.104 18.7816 427.872 18.6631C427.64 18.5446 427.353 18.4854 427.011 18.4854C426.692 18.4854 426.411 18.54 426.17 18.6494C425.933 18.7588 425.746 18.9023 425.609 19.0801C425.477 19.2578 425.411 19.4492 425.411 19.6543H424.146C424.146 19.39 424.215 19.1279 424.352 18.8682C424.488 18.6084 424.684 18.3737 424.939 18.1641C425.199 17.9499 425.509 17.7812 425.869 17.6582C426.234 17.5306 426.639 17.4668 427.086 17.4668C427.624 17.4668 428.098 17.5579 428.508 17.7402C428.923 17.9225 429.246 18.1982 429.479 18.5674C429.715 18.932 429.834 19.39 429.834 19.9414V23.3867C429.834 23.6328 429.854 23.8949 429.896 24.1729C429.941 24.4508 430.007 24.6901 430.094 24.8906V25H428.774C428.711 24.8542 428.66 24.6605 428.624 24.4189C428.588 24.1729 428.569 23.945 428.569 23.7354ZM428.788 20.5156L428.802 21.4043H427.523C427.163 21.4043 426.842 21.4339 426.56 21.4932C426.277 21.5479 426.04 21.6322 425.849 21.7461C425.657 21.86 425.511 22.0036 425.411 22.1768C425.311 22.3454 425.261 22.5436 425.261 22.7715C425.261 23.0039 425.313 23.2158 425.418 23.4072C425.523 23.5986 425.68 23.7513 425.89 23.8652C426.104 23.9746 426.366 24.0293 426.676 24.0293C427.063 24.0293 427.405 23.9473 427.701 23.7832C427.997 23.6191 428.232 23.4186 428.405 23.1816C428.583 22.9447 428.679 22.7145 428.692 22.4912L429.232 23.0996C429.201 23.291 429.114 23.5029 428.973 23.7354C428.831 23.9678 428.642 24.1911 428.405 24.4053C428.173 24.6149 427.895 24.7904 427.571 24.9316C427.252 25.0684 426.892 25.1367 426.491 25.1367C425.99 25.1367 425.55 25.0387 425.172 24.8428C424.798 24.6468 424.507 24.3848 424.297 24.0566C424.092 23.724 423.989 23.3525 423.989 22.9424C423.989 22.5459 424.067 22.1973 424.222 21.8965C424.377 21.5911 424.6 21.3382 424.892 21.1377C425.183 20.9326 425.534 20.7777 425.944 20.6729C426.354 20.568 426.812 20.5156 427.318 20.5156H428.788ZM436.485 23.5645V14.5H437.757V25H436.595L436.485 23.5645ZM431.509 21.3838V21.2402C431.509 20.6751 431.577 20.1624 431.714 19.7021C431.855 19.2373 432.053 18.8385 432.309 18.5059C432.568 18.1732 432.876 17.918 433.231 17.7402C433.591 17.5579 433.993 17.4668 434.435 17.4668C434.899 17.4668 435.305 17.5488 435.651 17.7129C436.002 17.8724 436.299 18.1071 436.54 18.417C436.786 18.7223 436.98 19.0915 437.121 19.5244C437.262 19.9574 437.36 20.4473 437.415 20.9941V21.623C437.365 22.1654 437.267 22.653 437.121 23.0859C436.98 23.5189 436.786 23.888 436.54 24.1934C436.299 24.4987 436.002 24.7334 435.651 24.8975C435.3 25.057 434.89 25.1367 434.421 25.1367C433.988 25.1367 433.591 25.0433 433.231 24.8564C432.876 24.6696 432.568 24.4076 432.309 24.0703C432.053 23.7331 431.855 23.3366 431.714 22.8809C431.577 22.4206 431.509 21.9215 431.509 21.3838ZM432.78 21.2402V21.3838C432.78 21.7529 432.817 22.0993 432.89 22.4229C432.967 22.7464 433.086 23.0312 433.245 23.2773C433.405 23.5234 433.607 23.7171 433.854 23.8584C434.1 23.9951 434.394 24.0635 434.735 24.0635C435.155 24.0635 435.499 23.9746 435.768 23.7969C436.041 23.6191 436.26 23.3844 436.424 23.0928C436.588 22.8011 436.715 22.4844 436.807 22.1426V20.4951C436.752 20.2445 436.672 20.0029 436.567 19.7705C436.467 19.5335 436.335 19.3239 436.171 19.1416C436.011 18.9548 435.813 18.8066 435.576 18.6973C435.344 18.5879 435.068 18.5332 434.749 18.5332C434.403 18.5332 434.104 18.6061 433.854 18.752C433.607 18.8932 433.405 19.0892 433.245 19.3398C433.086 19.5859 432.967 19.873 432.89 20.2012C432.817 20.5247 432.78 20.8711 432.78 21.2402ZM440.983 19.0732V25H439.712V17.6035H440.915L440.983 19.0732ZM440.724 21.0215L440.136 21.001C440.14 20.4951 440.206 20.028 440.334 19.5996C440.462 19.1667 440.651 18.7907 440.901 18.4717C441.152 18.1527 441.464 17.9066 441.838 17.7334C442.212 17.5557 442.645 17.4668 443.137 17.4668C443.483 17.4668 443.802 17.5169 444.094 17.6172C444.385 17.7129 444.638 17.8656 444.853 18.0752C445.067 18.2848 445.233 18.5537 445.352 18.8818C445.47 19.21 445.529 19.6064 445.529 20.0713V25H444.265V20.1328C444.265 19.7454 444.199 19.4355 444.066 19.2031C443.939 18.9707 443.757 18.8021 443.52 18.6973C443.283 18.5879 443.005 18.5332 442.686 18.5332C442.312 18.5332 442 18.5993 441.749 18.7314C441.498 18.8636 441.298 19.0459 441.147 19.2783C440.997 19.5107 440.888 19.7773 440.819 20.0781C440.756 20.3743 440.724 20.6888 440.724 21.0215ZM445.516 20.3242L444.668 20.584C444.673 20.1784 444.739 19.7887 444.866 19.415C444.998 19.0413 445.188 18.7087 445.434 18.417C445.684 18.1253 445.992 17.8952 446.356 17.7266C446.721 17.5534 447.138 17.4668 447.607 17.4668C448.004 17.4668 448.355 17.5192 448.66 17.624C448.97 17.7288 449.23 17.8906 449.439 18.1094C449.654 18.3236 449.815 18.5993 449.925 18.9365C450.034 19.2738 450.089 19.6748 450.089 20.1396V25H448.817V20.126C448.817 19.7113 448.751 19.39 448.619 19.1621C448.492 18.9297 448.309 18.7679 448.072 18.6768C447.84 18.5811 447.562 18.5332 447.238 18.5332C446.96 18.5332 446.714 18.5811 446.5 18.6768C446.286 18.7725 446.106 18.9046 445.96 19.0732C445.814 19.2373 445.702 19.4264 445.625 19.6406C445.552 19.8548 445.516 20.0827 445.516 20.3242ZM453.377 17.6035V25H452.105V17.6035H453.377ZM452.01 15.6416C452.01 15.4365 452.071 15.2633 452.194 15.1221C452.322 14.9808 452.509 14.9102 452.755 14.9102C452.996 14.9102 453.181 14.9808 453.309 15.1221C453.441 15.2633 453.507 15.4365 453.507 15.6416C453.507 15.8376 453.441 16.0062 453.309 16.1475C453.181 16.2842 452.996 16.3525 452.755 16.3525C452.509 16.3525 452.322 16.2842 452.194 16.1475C452.071 16.0062 452.01 15.8376 452.01 15.6416ZM456.672 19.1826V25H455.407V17.6035H456.604L456.672 19.1826ZM456.371 21.0215L455.845 21.001C455.849 20.4951 455.924 20.028 456.07 19.5996C456.216 19.1667 456.421 18.7907 456.686 18.4717C456.95 18.1527 457.264 17.9066 457.629 17.7334C457.998 17.5557 458.406 17.4668 458.853 17.4668C459.217 17.4668 459.545 17.5169 459.837 17.6172C460.129 17.7129 460.377 17.8678 460.582 18.082C460.792 18.2962 460.951 18.5742 461.061 18.916C461.17 19.2533 461.225 19.6657 461.225 20.1533V25H459.953V20.1396C459.953 19.7523 459.896 19.4424 459.782 19.21C459.668 18.973 459.502 18.8021 459.283 18.6973C459.064 18.5879 458.796 18.5332 458.477 18.5332C458.162 18.5332 457.875 18.5993 457.615 18.7314C457.36 18.8636 457.139 19.0459 456.952 19.2783C456.77 19.5107 456.626 19.7773 456.521 20.0781C456.421 20.3743 456.371 20.6888 456.371 21.0215ZM464.52 17.6035V25H463.248V17.6035H464.52ZM463.152 15.6416C463.152 15.4365 463.214 15.2633 463.337 15.1221C463.465 14.9808 463.651 14.9102 463.897 14.9102C464.139 14.9102 464.324 14.9808 464.451 15.1221C464.583 15.2633 464.649 15.4365 464.649 15.6416C464.649 15.8376 464.583 16.0062 464.451 16.1475C464.324 16.2842 464.139 16.3525 463.897 16.3525C463.651 16.3525 463.465 16.2842 463.337 16.1475C463.214 16.0062 463.152 15.8376 463.152 15.6416ZM470.856 23.0381C470.856 22.8558 470.815 22.6872 470.733 22.5322C470.656 22.3727 470.494 22.2292 470.248 22.1016C470.007 21.9694 469.642 21.8555 469.154 21.7598C468.744 21.6732 468.373 21.5706 468.04 21.4521C467.712 21.3337 467.432 21.1901 467.199 21.0215C466.971 20.8529 466.796 20.6546 466.673 20.4268C466.55 20.1989 466.488 19.9323 466.488 19.627C466.488 19.3353 466.552 19.0596 466.68 18.7998C466.812 18.54 466.996 18.3099 467.233 18.1094C467.475 17.9089 467.764 17.7516 468.102 17.6377C468.439 17.5238 468.815 17.4668 469.229 17.4668C469.822 17.4668 470.328 17.5716 470.747 17.7812C471.166 17.9909 471.488 18.2712 471.711 18.6221C471.934 18.9684 472.046 19.3535 472.046 19.7773H470.781C470.781 19.5723 470.72 19.374 470.597 19.1826C470.478 18.9867 470.303 18.8249 470.07 18.6973C469.842 18.5697 469.562 18.5059 469.229 18.5059C468.879 18.5059 468.594 18.5605 468.375 18.6699C468.161 18.7747 468.004 18.9092 467.903 19.0732C467.808 19.2373 467.76 19.4105 467.76 19.5928C467.76 19.7295 467.783 19.8525 467.828 19.9619C467.878 20.0667 467.965 20.1647 468.088 20.2559C468.211 20.3424 468.384 20.4245 468.607 20.502C468.831 20.5794 469.116 20.6569 469.462 20.7344C470.068 20.8711 470.567 21.0352 470.959 21.2266C471.351 21.418 471.643 21.6527 471.834 21.9307C472.025 22.2087 472.121 22.5459 472.121 22.9424C472.121 23.266 472.053 23.5622 471.916 23.8311C471.784 24.0999 471.59 24.3324 471.335 24.5283C471.084 24.7197 470.784 24.8701 470.433 24.9795C470.086 25.0843 469.697 25.1367 469.264 25.1367C468.612 25.1367 468.061 25.0205 467.609 24.7881C467.158 24.5557 466.816 24.2549 466.584 23.8857C466.352 23.5166 466.235 23.127 466.235 22.7168H467.507C467.525 23.0632 467.625 23.3389 467.808 23.5439C467.99 23.7445 468.213 23.888 468.478 23.9746C468.742 24.0566 469.004 24.0977 469.264 24.0977C469.61 24.0977 469.899 24.0521 470.132 23.9609C470.369 23.8698 470.549 23.7445 470.672 23.585C470.795 23.4255 470.856 23.2432 470.856 23.0381ZM476.879 17.6035V18.5742H472.88V17.6035H476.879ZM474.233 15.8057H475.498V23.168C475.498 23.4186 475.537 23.6077 475.614 23.7354C475.692 23.863 475.792 23.9473 475.915 23.9883C476.038 24.0293 476.17 24.0498 476.312 24.0498C476.416 24.0498 476.526 24.0407 476.64 24.0225C476.758 23.9997 476.847 23.9814 476.906 23.9678L476.913 25C476.813 25.0319 476.681 25.0615 476.517 25.0889C476.357 25.1208 476.163 25.1367 475.936 25.1367C475.626 25.1367 475.341 25.0752 475.081 24.9521C474.821 24.8291 474.614 24.624 474.459 24.3369C474.309 24.0452 474.233 23.6533 474.233 23.1611V15.8057ZM479.627 18.7656V25H478.362V17.6035H479.593L479.627 18.7656ZM481.938 17.5625L481.931 18.7383C481.826 18.7155 481.726 18.7018 481.63 18.6973C481.539 18.6882 481.434 18.6836 481.315 18.6836C481.024 18.6836 480.766 18.7292 480.543 18.8203C480.32 18.9115 480.131 19.0391 479.976 19.2031C479.821 19.3672 479.698 19.5632 479.606 19.791C479.52 20.0143 479.463 20.2604 479.436 20.5293L479.08 20.7344C479.08 20.2878 479.123 19.8685 479.21 19.4766C479.301 19.0846 479.44 18.7383 479.627 18.4375C479.814 18.1322 480.051 17.8952 480.338 17.7266C480.63 17.5534 480.976 17.4668 481.377 17.4668C481.468 17.4668 481.573 17.4782 481.691 17.501C481.81 17.5192 481.892 17.5397 481.938 17.5625ZM487.194 23.7354V19.9277C487.194 19.6361 487.135 19.3831 487.017 19.1689C486.903 18.9502 486.729 18.7816 486.497 18.6631C486.265 18.5446 485.978 18.4854 485.636 18.4854C485.317 18.4854 485.036 18.54 484.795 18.6494C484.558 18.7588 484.371 18.9023 484.234 19.0801C484.102 19.2578 484.036 19.4492 484.036 19.6543H482.771C482.771 19.39 482.84 19.1279 482.977 18.8682C483.113 18.6084 483.309 18.3737 483.564 18.1641C483.824 17.9499 484.134 17.7812 484.494 17.6582C484.859 17.5306 485.264 17.4668 485.711 17.4668C486.249 17.4668 486.723 17.5579 487.133 17.7402C487.548 17.9225 487.871 18.1982 488.104 18.5674C488.34 18.932 488.459 19.39 488.459 19.9414V23.3867C488.459 23.6328 488.479 23.8949 488.521 24.1729C488.566 24.4508 488.632 24.6901 488.719 24.8906V25H487.399C487.336 24.8542 487.285 24.6605 487.249 24.4189C487.213 24.1729 487.194 23.945 487.194 23.7354ZM487.413 20.5156L487.427 21.4043H486.148C485.788 21.4043 485.467 21.4339 485.185 21.4932C484.902 21.5479 484.665 21.6322 484.474 21.7461C484.282 21.86 484.136 22.0036 484.036 22.1768C483.936 22.3454 483.886 22.5436 483.886 22.7715C483.886 23.0039 483.938 23.2158 484.043 23.4072C484.148 23.5986 484.305 23.7513 484.515 23.8652C484.729 23.9746 484.991 24.0293 485.301 24.0293C485.688 24.0293 486.03 23.9473 486.326 23.7832C486.622 23.6191 486.857 23.4186 487.03 23.1816C487.208 22.9447 487.304 22.7145 487.317 22.4912L487.857 23.0996C487.826 23.291 487.739 23.5029 487.598 23.7354C487.456 23.9678 487.267 24.1911 487.03 24.4053C486.798 24.6149 486.52 24.7904 486.196 24.9316C485.877 25.0684 485.517 25.1367 485.116 25.1367C484.615 25.1367 484.175 25.0387 483.797 24.8428C483.423 24.6468 483.132 24.3848 482.922 24.0566C482.717 23.724 482.614 23.3525 482.614 22.9424C482.614 22.5459 482.692 22.1973 482.847 21.8965C483.002 21.5911 483.225 21.3382 483.517 21.1377C483.808 20.9326 484.159 20.7777 484.569 20.6729C484.979 20.568 485.438 20.5156 485.943 20.5156H487.413ZM495.11 23.5645V14.5H496.382V25H495.22L495.11 23.5645ZM490.134 21.3838V21.2402C490.134 20.6751 490.202 20.1624 490.339 19.7021C490.48 19.2373 490.678 18.8385 490.934 18.5059C491.193 18.1732 491.501 17.918 491.856 17.7402C492.216 17.5579 492.618 17.4668 493.06 17.4668C493.524 17.4668 493.93 17.5488 494.276 17.7129C494.627 17.8724 494.924 18.1071 495.165 18.417C495.411 18.7223 495.605 19.0915 495.746 19.5244C495.887 19.9574 495.985 20.4473 496.04 20.9941V21.623C495.99 22.1654 495.892 22.653 495.746 23.0859C495.605 23.5189 495.411 23.888 495.165 24.1934C494.924 24.4987 494.627 24.7334 494.276 24.8975C493.925 25.057 493.515 25.1367 493.046 25.1367C492.613 25.1367 492.216 25.0433 491.856 24.8564C491.501 24.6696 491.193 24.4076 490.934 24.0703C490.678 23.7331 490.48 23.3366 490.339 22.8809C490.202 22.4206 490.134 21.9215 490.134 21.3838ZM491.405 21.2402V21.3838C491.405 21.7529 491.442 22.0993 491.515 22.4229C491.592 22.7464 491.711 23.0312 491.87 23.2773C492.03 23.5234 492.232 23.7171 492.479 23.8584C492.725 23.9951 493.019 24.0635 493.36 24.0635C493.78 24.0635 494.124 23.9746 494.393 23.7969C494.666 23.6191 494.885 23.3844 495.049 23.0928C495.213 22.8011 495.34 22.4844 495.432 22.1426V20.4951C495.377 20.2445 495.297 20.0029 495.192 19.7705C495.092 19.5335 494.96 19.3239 494.796 19.1416C494.636 18.9548 494.438 18.8066 494.201 18.6973C493.969 18.5879 493.693 18.5332 493.374 18.5332C493.028 18.5332 492.729 18.6061 492.479 18.752C492.232 18.8932 492.03 19.0892 491.87 19.3398C491.711 19.5859 491.592 19.873 491.515 20.2012C491.442 20.5247 491.405 20.8711 491.405 21.2402ZM498.016 21.3838V21.2266C498.016 20.6934 498.093 20.1989 498.248 19.7432C498.403 19.2829 498.626 18.8841 498.918 18.5469C499.21 18.2051 499.563 17.9408 499.978 17.7539C500.392 17.5625 500.857 17.4668 501.372 17.4668C501.892 17.4668 502.359 17.5625 502.773 17.7539C503.193 17.9408 503.548 18.2051 503.84 18.5469C504.136 18.8841 504.362 19.2829 504.517 19.7432C504.672 20.1989 504.749 20.6934 504.749 21.2266V21.3838C504.749 21.917 504.672 22.4115 504.517 22.8672C504.362 23.3229 504.136 23.7217 503.84 24.0635C503.548 24.4007 503.195 24.665 502.78 24.8564C502.37 25.0433 501.905 25.1367 501.386 25.1367C500.866 25.1367 500.399 25.0433 499.984 24.8564C499.57 24.665 499.214 24.4007 498.918 24.0635C498.626 23.7217 498.403 23.3229 498.248 22.8672C498.093 22.4115 498.016 21.917 498.016 21.3838ZM499.28 21.2266V21.3838C499.28 21.7529 499.324 22.1016 499.41 22.4297C499.497 22.7533 499.627 23.0404 499.8 23.291C499.978 23.5417 500.199 23.7399 500.463 23.8857C500.727 24.027 501.035 24.0977 501.386 24.0977C501.732 24.0977 502.035 24.027 502.295 23.8857C502.559 23.7399 502.778 23.5417 502.951 23.291C503.124 23.0404 503.254 22.7533 503.341 22.4297C503.432 22.1016 503.478 21.7529 503.478 21.3838V21.2266C503.478 20.862 503.432 20.5179 503.341 20.1943C503.254 19.8662 503.122 19.5768 502.944 19.3262C502.771 19.071 502.552 18.8704 502.288 18.7246C502.028 18.5788 501.723 18.5059 501.372 18.5059C501.026 18.5059 500.72 18.5788 500.456 18.7246C500.196 18.8704 499.978 19.071 499.8 19.3262C499.627 19.5768 499.497 19.8662 499.41 20.1943C499.324 20.5179 499.28 20.862 499.28 21.2266ZM507.6 18.7656V25H506.335V17.6035H507.565L507.6 18.7656ZM509.91 17.5625L509.903 18.7383C509.799 18.7155 509.698 18.7018 509.603 18.6973C509.511 18.6882 509.407 18.6836 509.288 18.6836C508.996 18.6836 508.739 18.7292 508.516 18.8203C508.292 18.9115 508.103 19.0391 507.948 19.2031C507.793 19.3672 507.67 19.5632 507.579 19.791C507.493 20.0143 507.436 20.2604 507.408 20.5293L507.053 20.7344C507.053 20.2878 507.096 19.8685 507.183 19.4766C507.274 19.0846 507.413 18.7383 507.6 18.4375C507.786 18.1322 508.023 17.8952 508.311 17.7266C508.602 17.5534 508.949 17.4668 509.35 17.4668C509.441 17.4668 509.546 17.4782 509.664 17.501C509.783 17.5192 509.865 17.5397 509.91 17.5625Z" fill="black" fill-opacity="0.85"/>
</svg>
