<svg width="17" height="12" viewBox="0 0 17 12" fill="none" xmlns="http://www.w3.org/2000/svg">
<path d="M6.2915 5.71875C6.479 5.90625 6.82275 5.90625 7.01025 5.71875L9.6665 3.0625L12.3853 5.8125L11.479 6.75C10.979 7.21875 11.3228 8 12.0103 8H15.1665C15.4165 8 15.6665 7.78125 15.6665 7.5V4.375C15.6665 3.6875 14.854 3.34375 14.3853 3.84375L13.4478 4.75L10.0103 1.3125C9.82275 1.125 9.479 1.125 9.2915 1.3125L6.6665 3.96875L5.0415 2.34375C4.854 2.15625 4.51025 2.15625 4.32275 2.34375L3.979 2.6875C3.7915 2.875 3.7915 3.21875 3.979 3.40625L6.2915 5.71875ZM16.1665 10.5H2.1665V0.5C2.1665 0.25 1.9165 0 1.6665 0H1.1665C0.885254 0 0.666504 0.25 0.666504 0.5V11C0.666504 11.5625 1.104 12 1.6665 12H16.1665C16.4165 12 16.6665 11.7812 16.6665 11.5V11C16.6665 10.75 16.4165 10.5 16.1665 10.5Z" fill="#E60F0F"/>
</svg>
