<svg width="13" height="16" viewBox="0 0 13 16" fill="none" xmlns="http://www.w3.org/2000/svg">
<path d="M11.8645 3.06238L9.27075 0.468628C8.9895 0.187378 8.6145 -0.00012207 8.20825 -0.00012207H1.83325C0.989502 -0.00012207 0.333252 0.687378 0.333252 1.49988V14.4999C0.333252 15.3436 0.989502 15.9999 1.83325 15.9999H10.8333C11.6458 15.9999 12.3333 15.3436 12.3333 14.4999V4.12488C12.3333 3.71863 12.1458 3.34363 11.8645 3.06238ZM10.7083 3.99988H8.33325V1.62488L10.7083 3.99988ZM1.83325 14.4999V1.49988H6.83325V4.74988C6.83325 5.18738 7.14575 5.49988 7.58325 5.49988H10.8333V14.4999H1.83325ZM9.9895 8.49988C10.1145 8.34363 10.1145 8.12488 9.9895 7.96863L9.27075 7.24988C9.14575 7.09363 8.89575 7.09363 8.7395 7.24988L5.27075 10.6874L3.89575 9.31238C3.7395 9.15613 3.52075 9.15613 3.3645 9.31238L2.64575 9.99988C2.52075 10.1561 2.52075 10.4061 2.64575 10.5311L4.9895 12.9061C5.14575 13.0624 5.39575 13.0624 5.52075 12.9061L9.9895 8.49988Z" fill="#E60F0F"/>
</svg>
