<svg width="12" height="14" viewBox="0 0 12 14" fill="none" xmlns="http://www.w3.org/2000/svg">
<path d="M10.5833 5.33301H9.74996V4.13509C9.74996 2.05176 8.08329 0.359049 5.99996 0.333008C3.91663 0.333008 2.24996 2.02572 2.24996 4.08301V5.33301H1.41663C0.713501 5.33301 0.166626 5.90592 0.166626 6.58301V12.4163C0.166626 13.1195 0.713501 13.6663 1.41663 13.6663H10.5833C11.2604 13.6663 11.8333 13.1195 11.8333 12.4163V6.58301C11.8333 5.90592 11.2604 5.33301 10.5833 5.33301ZM3.49996 4.08301C3.49996 2.72884 4.61975 1.58301 5.99996 1.58301C7.35413 1.58301 8.49996 2.72884 8.49996 4.08301V5.33301H3.49996V4.08301ZM10.5833 12.4163H1.41663V6.58301H10.5833V12.4163Z" fill="#020202"/>
</svg>
