<svg width="107" height="22" viewBox="0 0 107 22" fill="none" xmlns="http://www.w3.org/2000/svg">
<rect x="0.5" y="0.5" width="106" height="21" rx="1.5" fill="#FFF1F0"/>
<rect x="0.5" y="0.5" width="106" height="21" rx="1.5" stroke="#FFA39E"/>
<path d="M16.3221 8.88205C16.3221 8.82312 16.2739 8.7749 16.215 8.7749L15.3311 8.77892L13.9998 10.366L12.6699 8.78026L11.7846 8.77624C11.7257 8.77624 11.6775 8.82312 11.6775 8.88338C11.6775 8.90883 11.6869 8.93294 11.7029 8.95303L13.4453 11.0289L11.7029 13.1035C11.6868 13.1231 11.6778 13.1477 11.6775 13.1731C11.6775 13.232 11.7257 13.2803 11.7846 13.2803L12.6699 13.2762L13.9998 11.6892L15.3297 13.2749L16.2137 13.2789C16.2726 13.2789 16.3208 13.232 16.3208 13.1718C16.3208 13.1463 16.3114 13.1222 16.2953 13.1021L14.5556 11.0276L16.298 8.95169C16.3141 8.93294 16.3221 8.90749 16.3221 8.88205Z" fill="#F5222D"/>
<path d="M14 5C10.6866 5 8 7.68661 8 11C8 14.3134 10.6866 17 14 17C17.3134 17 20 14.3134 20 11C20 7.68661 17.3134 5 14 5ZM14 15.9821C11.2491 15.9821 9.01786 13.7509 9.01786 11C9.01786 8.24911 11.2491 6.01786 14 6.01786C16.7509 6.01786 18.9821 8.24911 18.9821 11C18.9821 13.7509 16.7509 15.9821 14 15.9821Z" fill="#F5222D"/>
<path d="M35.5527 6.46875V15H34.416L30.1211 8.41992V15H28.9902V6.46875H30.1211L34.4336 13.0664V6.46875H35.5527ZM37.1055 11.9004V11.7656C37.1055 11.3086 37.1719 10.8848 37.3047 10.4941C37.4375 10.0996 37.6289 9.75781 37.8789 9.46875C38.1289 9.17578 38.4316 8.94922 38.7871 8.78906C39.1426 8.625 39.541 8.54297 39.9824 8.54297C40.4277 8.54297 40.8281 8.625 41.1836 8.78906C41.543 8.94922 41.8477 9.17578 42.0977 9.46875C42.3516 9.75781 42.5449 10.0996 42.6777 10.4941C42.8105 10.8848 42.877 11.3086 42.877 11.7656V11.9004C42.877 12.3574 42.8105 12.7812 42.6777 13.1719C42.5449 13.5625 42.3516 13.9043 42.0977 14.1973C41.8477 14.4863 41.5449 14.7129 41.1895 14.877C40.8379 15.0371 40.4395 15.1172 39.9941 15.1172C39.5488 15.1172 39.1484 15.0371 38.793 14.877C38.4375 14.7129 38.1328 14.4863 37.8789 14.1973C37.6289 13.9043 37.4375 13.5625 37.3047 13.1719C37.1719 12.7812 37.1055 12.3574 37.1055 11.9004ZM38.1895 11.7656V11.9004C38.1895 12.2168 38.2266 12.5156 38.3008 12.7969C38.375 13.0742 38.4863 13.3203 38.6348 13.5352C38.7871 13.75 38.9766 13.9199 39.2031 14.0449C39.4297 14.166 39.6934 14.2266 39.9941 14.2266C40.291 14.2266 40.5508 14.166 40.7734 14.0449C41 13.9199 41.1875 13.75 41.3359 13.5352C41.4844 13.3203 41.5957 13.0742 41.6699 12.7969C41.748 12.5156 41.7871 12.2168 41.7871 11.9004V11.7656C41.7871 11.4531 41.748 11.1582 41.6699 10.8809C41.5957 10.5996 41.4824 10.3516 41.3301 10.1367C41.1816 9.91797 40.9941 9.74609 40.7676 9.62109C40.5449 9.49609 40.2832 9.43359 39.9824 9.43359C39.6855 9.43359 39.4238 9.49609 39.1973 9.62109C38.9746 9.74609 38.7871 9.91797 38.6348 10.1367C38.4863 10.3516 38.375 10.5996 38.3008 10.8809C38.2266 11.1582 38.1895 11.4531 38.1895 11.7656ZM49.1406 14.0215L50.875 8.66016H51.9824L49.7031 15H48.9766L49.1406 14.0215ZM47.6934 8.66016L49.4805 14.0508L49.6035 15H48.877L46.5801 8.66016H47.6934ZM55.5742 15.1172C55.1328 15.1172 54.7324 15.043 54.373 14.8945C54.0176 14.7422 53.7109 14.5293 53.4531 14.2559C53.1992 13.9824 53.0039 13.6582 52.8672 13.2832C52.7305 12.9082 52.6621 12.498 52.6621 12.0527V11.8066C52.6621 11.291 52.7383 10.832 52.8906 10.4297C53.043 10.0234 53.25 9.67969 53.5117 9.39844C53.7734 9.11719 54.0703 8.9043 54.4023 8.75977C54.7344 8.61523 55.0781 8.54297 55.4336 8.54297C55.8867 8.54297 56.2773 8.62109 56.6055 8.77734C56.9375 8.93359 57.209 9.15234 57.4199 9.43359C57.6309 9.71094 57.7871 10.0391 57.8887 10.418C57.9902 10.793 58.041 11.2031 58.041 11.6484V12.1348H53.3066V11.25H56.957V11.168C56.9414 10.8867 56.8828 10.6133 56.7812 10.3477C56.6836 10.082 56.5273 9.86328 56.3125 9.69141C56.0977 9.51953 55.8047 9.43359 55.4336 9.43359C55.1875 9.43359 54.9609 9.48633 54.7539 9.5918C54.5469 9.69336 54.3691 9.8457 54.2207 10.0488C54.0723 10.252 53.957 10.5 53.875 10.793C53.793 11.0859 53.752 11.4238 53.752 11.8066V12.0527C53.752 12.3535 53.793 12.6367 53.875 12.9023C53.9609 13.1641 54.084 13.3945 54.2441 13.5938C54.4082 13.793 54.6055 13.9492 54.8359 14.0625C55.0703 14.1758 55.3359 14.2324 55.6328 14.2324C56.0156 14.2324 56.3398 14.1543 56.6055 13.998C56.8711 13.8418 57.1035 13.6328 57.3027 13.3711L57.959 13.8926C57.8223 14.0996 57.6484 14.2969 57.4375 14.4844C57.2266 14.6719 56.9668 14.8242 56.6582 14.9414C56.3535 15.0586 55.9922 15.1172 55.5742 15.1172ZM60.3906 9.65625V15H59.3066V8.66016H60.3613L60.3906 9.65625ZM62.3711 8.625L62.3652 9.63281C62.2754 9.61328 62.1895 9.60156 62.1074 9.59766C62.0293 9.58984 61.9395 9.58594 61.8379 9.58594C61.5879 9.58594 61.3672 9.625 61.1758 9.70312C60.9844 9.78125 60.8223 9.89062 60.6895 10.0312C60.5566 10.1719 60.4512 10.3398 60.373 10.5352C60.2988 10.7266 60.25 10.9375 60.2266 11.168L59.9219 11.3438C59.9219 10.9609 59.959 10.6016 60.0332 10.2656C60.1113 9.92969 60.2305 9.63281 60.3906 9.375C60.5508 9.11328 60.7539 8.91016 61 8.76562C61.25 8.61719 61.5469 8.54297 61.8906 8.54297C61.9688 8.54297 62.0586 8.55273 62.1602 8.57227C62.2617 8.58789 62.332 8.60547 62.3711 8.625ZM64.5508 8.66016V15H63.4609V8.66016H64.5508ZM63.3789 6.97852C63.3789 6.80273 63.4316 6.6543 63.5371 6.5332C63.6465 6.41211 63.8066 6.35156 64.0176 6.35156C64.2246 6.35156 64.3828 6.41211 64.4922 6.5332C64.6055 6.6543 64.6621 6.80273 64.6621 6.97852C64.6621 7.14648 64.6055 7.29102 64.4922 7.41211C64.3828 7.5293 64.2246 7.58789 64.0176 7.58789C63.8066 7.58789 63.6465 7.5293 63.5371 7.41211C63.4316 7.29102 63.3789 7.14648 63.3789 6.97852ZM67.7383 15H66.6543V8.10938C66.6543 7.62891 66.748 7.22266 66.9355 6.89062C67.123 6.55859 67.3906 6.30664 67.7383 6.13477C68.0859 5.96289 68.498 5.87695 68.9746 5.87695C69.2559 5.87695 69.5312 5.91211 69.8008 5.98242C70.0703 6.04883 70.3477 6.13281 70.6328 6.23438L70.4512 7.14844C70.2715 7.07812 70.0625 7.01172 69.8242 6.94922C69.5898 6.88281 69.332 6.84961 69.0508 6.84961C68.5859 6.84961 68.25 6.95508 68.043 7.16602C67.8398 7.37305 67.7383 7.6875 67.7383 8.10938V15ZM69.0332 8.66016V9.49219H65.6523V8.66016H69.0332ZM71.166 8.66016V15H70.082V8.66016H71.166ZM75.4844 14.2266C75.7422 14.2266 75.9805 14.1738 76.1992 14.0684C76.418 13.9629 76.5977 13.8184 76.7383 13.6348C76.8789 13.4473 76.959 13.2344 76.9785 12.9961H78.0098C77.9902 13.3711 77.8633 13.7207 77.6289 14.0449C77.3984 14.3652 77.0957 14.625 76.7207 14.8242C76.3457 15.0195 75.9336 15.1172 75.4844 15.1172C75.0078 15.1172 74.5918 15.0332 74.2363 14.8652C73.8848 14.6973 73.5918 14.4668 73.3574 14.1738C73.127 13.8809 72.9531 13.5449 72.8359 13.166C72.7227 12.7832 72.666 12.3789 72.666 11.9531V11.707C72.666 11.2812 72.7227 10.8789 72.8359 10.5C72.9531 10.1172 73.127 9.7793 73.3574 9.48633C73.5918 9.19336 73.8848 8.96289 74.2363 8.79492C74.5918 8.62695 75.0078 8.54297 75.4844 8.54297C75.9805 8.54297 76.4141 8.64453 76.7852 8.84766C77.1562 9.04688 77.4473 9.32031 77.6582 9.66797C77.873 10.0117 77.9902 10.4023 78.0098 10.8398H76.9785C76.959 10.5781 76.8848 10.3418 76.7559 10.1309C76.6309 9.91992 76.459 9.75195 76.2402 9.62695C76.0254 9.49805 75.7734 9.43359 75.4844 9.43359C75.1523 9.43359 74.873 9.5 74.6465 9.63281C74.4238 9.76172 74.2461 9.9375 74.1133 10.1602C73.9844 10.3789 73.8906 10.623 73.832 10.8926C73.7773 11.1582 73.75 11.4297 73.75 11.707V11.9531C73.75 12.2305 73.7773 12.5039 73.832 12.7734C73.8867 13.043 73.9785 13.2871 74.1074 13.5059C74.2402 13.7246 74.418 13.9004 74.6406 14.0332C74.8672 14.1621 75.1484 14.2266 75.4844 14.2266ZM82.9668 13.916V10.6523C82.9668 10.4023 82.916 10.1855 82.8145 10.002C82.7168 9.81445 82.5684 9.66992 82.3691 9.56836C82.1699 9.4668 81.9238 9.41602 81.6309 9.41602C81.3574 9.41602 81.1172 9.46289 80.9102 9.55664C80.707 9.65039 80.5469 9.77344 80.4297 9.92578C80.3164 10.0781 80.2598 10.2422 80.2598 10.418H79.1758C79.1758 10.1914 79.2344 9.9668 79.3516 9.74414C79.4688 9.52148 79.6367 9.32031 79.8555 9.14062C80.0781 8.95703 80.3438 8.8125 80.6523 8.70703C80.9648 8.59766 81.3125 8.54297 81.6953 8.54297C82.1562 8.54297 82.5625 8.62109 82.9141 8.77734C83.2695 8.93359 83.5469 9.16992 83.7461 9.48633C83.9492 9.79883 84.0508 10.1914 84.0508 10.6641V13.6172C84.0508 13.8281 84.0684 14.0527 84.1035 14.291C84.1426 14.5293 84.1992 14.7344 84.2734 14.9062V15H83.1426C83.0879 14.875 83.0449 14.709 83.0137 14.502C82.9824 14.291 82.9668 14.0957 82.9668 13.916ZM83.1543 11.1562L83.166 11.918H82.0703C81.7617 11.918 81.4863 11.9434 81.2441 11.9941C81.002 12.041 80.7988 12.1133 80.6348 12.2109C80.4707 12.3086 80.3457 12.4316 80.2598 12.5801C80.1738 12.7246 80.1309 12.8945 80.1309 13.0898C80.1309 13.2891 80.1758 13.4707 80.2656 13.6348C80.3555 13.7988 80.4902 13.9297 80.6699 14.0273C80.8535 14.1211 81.0781 14.168 81.3438 14.168C81.6758 14.168 81.9688 14.0977 82.2227 13.957C82.4766 13.8164 82.6777 13.6445 82.8262 13.4414C82.9785 13.2383 83.0605 13.041 83.0723 12.8496L83.5352 13.3711C83.5078 13.5352 83.4336 13.7168 83.3125 13.916C83.1914 14.1152 83.0293 14.3066 82.8262 14.4902C82.627 14.6699 82.3887 14.8203 82.1113 14.9414C81.8379 15.0586 81.5293 15.1172 81.1855 15.1172C80.7559 15.1172 80.3789 15.0332 80.0547 14.8652C79.7344 14.6973 79.4844 14.4727 79.3047 14.1914C79.1289 13.9062 79.041 13.5879 79.041 13.2363C79.041 12.8965 79.1074 12.5977 79.2402 12.3398C79.373 12.0781 79.5645 11.8613 79.8145 11.6895C80.0645 11.5137 80.3652 11.3809 80.7168 11.291C81.0684 11.2012 81.4609 11.1562 81.8945 11.1562H83.1543ZM89.752 13.7695V6H90.8418V15H89.8457L89.752 13.7695ZM85.4863 11.9004V11.7773C85.4863 11.293 85.5449 10.8535 85.6621 10.459C85.7832 10.0605 85.9531 9.71875 86.1719 9.43359C86.3945 9.14844 86.6582 8.92969 86.9629 8.77734C87.2715 8.62109 87.6152 8.54297 87.9941 8.54297C88.3926 8.54297 88.7402 8.61328 89.0371 8.75391C89.3379 8.89062 89.5918 9.0918 89.7988 9.35742C90.0098 9.61914 90.1758 9.93555 90.2969 10.3066C90.418 10.6777 90.502 11.0977 90.5488 11.5664V12.1055C90.5059 12.5703 90.4219 12.9883 90.2969 13.3594C90.1758 13.7305 90.0098 14.0469 89.7988 14.3086C89.5918 14.5703 89.3379 14.7715 89.0371 14.9121C88.7363 15.0488 88.3848 15.1172 87.9824 15.1172C87.6113 15.1172 87.2715 15.0371 86.9629 14.877C86.6582 14.7168 86.3945 14.4922 86.1719 14.2031C85.9531 13.9141 85.7832 13.5742 85.6621 13.1836C85.5449 12.7891 85.4863 12.3613 85.4863 11.9004ZM86.5762 11.7773V11.9004C86.5762 12.2168 86.6074 12.5137 86.6699 12.791C86.7363 13.0684 86.8379 13.3125 86.9746 13.5234C87.1113 13.7344 87.2852 13.9004 87.4961 14.0215C87.707 14.1387 87.959 14.1973 88.252 14.1973C88.6113 14.1973 88.9062 14.1211 89.1367 13.9688C89.3711 13.8164 89.5586 13.6152 89.6992 13.3652C89.8398 13.1152 89.9492 12.8438 90.0273 12.5508V11.1387C89.9805 10.9238 89.9121 10.7168 89.8223 10.5176C89.7363 10.3145 89.623 10.1348 89.4824 9.97852C89.3457 9.81836 89.1758 9.69141 88.9727 9.59766C88.7734 9.50391 88.5371 9.45703 88.2637 9.45703C87.9668 9.45703 87.7109 9.51953 87.4961 9.64453C87.2852 9.76562 87.1113 9.93359 86.9746 10.1484C86.8379 10.3594 86.7363 10.6055 86.6699 10.8867C86.6074 11.1641 86.5762 11.4609 86.5762 11.7773ZM96.2676 13.916V10.6523C96.2676 10.4023 96.2168 10.1855 96.1152 10.002C96.0176 9.81445 95.8691 9.66992 95.6699 9.56836C95.4707 9.4668 95.2246 9.41602 94.9316 9.41602C94.6582 9.41602 94.418 9.46289 94.2109 9.55664C94.0078 9.65039 93.8477 9.77344 93.7305 9.92578C93.6172 10.0781 93.5605 10.2422 93.5605 10.418H92.4766C92.4766 10.1914 92.5352 9.9668 92.6523 9.74414C92.7695 9.52148 92.9375 9.32031 93.1562 9.14062C93.3789 8.95703 93.6445 8.8125 93.9531 8.70703C94.2656 8.59766 94.6133 8.54297 94.9961 8.54297C95.457 8.54297 95.8633 8.62109 96.2148 8.77734C96.5703 8.93359 96.8477 9.16992 97.0469 9.48633C97.25 9.79883 97.3516 10.1914 97.3516 10.6641V13.6172C97.3516 13.8281 97.3691 14.0527 97.4043 14.291C97.4434 14.5293 97.5 14.7344 97.5742 14.9062V15H96.4434C96.3887 14.875 96.3457 14.709 96.3145 14.502C96.2832 14.291 96.2676 14.0957 96.2676 13.916ZM96.4551 11.1562L96.4668 11.918H95.3711C95.0625 11.918 94.7871 11.9434 94.5449 11.9941C94.3027 12.041 94.0996 12.1133 93.9355 12.2109C93.7715 12.3086 93.6465 12.4316 93.5605 12.5801C93.4746 12.7246 93.4316 12.8945 93.4316 13.0898C93.4316 13.2891 93.4766 13.4707 93.5664 13.6348C93.6562 13.7988 93.791 13.9297 93.9707 14.0273C94.1543 14.1211 94.3789 14.168 94.6445 14.168C94.9766 14.168 95.2695 14.0977 95.5234 13.957C95.7773 13.8164 95.9785 13.6445 96.127 13.4414C96.2793 13.2383 96.3613 13.041 96.373 12.8496L96.8359 13.3711C96.8086 13.5352 96.7344 13.7168 96.6133 13.916C96.4922 14.1152 96.3301 14.3066 96.127 14.4902C95.9277 14.6699 95.6895 14.8203 95.4121 14.9414C95.1387 15.0586 94.8301 15.1172 94.4863 15.1172C94.0566 15.1172 93.6797 15.0332 93.3555 14.8652C93.0352 14.6973 92.7852 14.4727 92.6055 14.1914C92.4297 13.9062 92.3418 13.5879 92.3418 13.2363C92.3418 12.8965 92.4082 12.5977 92.541 12.3398C92.6738 12.0781 92.8652 11.8613 93.1152 11.6895C93.3652 11.5137 93.666 11.3809 94.0176 11.291C94.3691 11.2012 94.7617 11.1562 95.1953 11.1562H96.4551Z" fill="#F5222D"/>
</svg>
