<svg width="24" height="24" viewBox="0 0 24 24" fill="none" xmlns="http://www.w3.org/2000/svg">
<path d="M5.5 5.49988H16.5V6.99988H18V4.99988C17.9687 4.46863 17.5312 4.03113 17 3.99988H5C4.4375 4.03113 4 4.46863 4 4.99988V12.9999H2.5C2.21875 12.9999 2 13.2499 2 13.4999V13.9999C2 15.1249 2.875 15.9999 3.96875 15.9999H13V12.9999H5.5V5.49988ZM20.875 7.99988H15.125C14.5 7.99988 14 8.53113 14 9.12488V18.8749C14 19.4999 14.5 19.9999 15.125 19.9999H20.875C21.4687 19.9999 22 19.4999 22 18.8749V9.12488C22 8.53113 21.4687 7.99988 20.875 7.99988ZM20.5 18.4999H15.5V9.49988H20.5V18.4999Z" fill="#E60F0F"/>
</svg>
