<svg width="24" height="24" viewBox="0 0 24 24" fill="none" xmlns="http://www.w3.org/2000/svg">
<path d="M15.7499 12.9999H8.24988C8.09363 12.9999 7.99988 13.1249 7.99988 13.2499V14.2499C7.99988 14.4062 8.09363 14.4999 8.24988 14.4999H15.7499C15.8749 14.4999 15.9999 14.4062 15.9999 14.2499V13.2499C15.9999 13.1249 15.8749 12.9999 15.7499 12.9999ZM17.4999 4.18743L16.1561 5.15618L14.9374 4.31243C14.4061 3.93743 13.7186 3.93743 13.1874 4.31243L11.9999 5.15618L10.7811 4.31243C10.5311 4.12493 10.2186 4.03118 9.90613 4.03118C9.56238 4.03118 9.28113 4.12493 9.03113 4.31243L7.81238 5.15618L6.46863 4.18743C5.84363 3.74993 4.99988 4.18743 4.99988 4.93743V19.0937C4.99988 19.8124 5.84363 20.2812 6.46863 19.8437L7.81238 18.8437L9.03113 19.7187C9.56238 20.0937 10.2499 20.0937 10.7811 19.7187L11.9999 18.8437L13.1874 19.7187C13.7186 20.0937 14.4061 20.0937 14.9374 19.7187L16.1561 18.8437L17.4999 19.8437C18.1249 20.2812 18.9999 19.8437 18.9999 19.0937V4.93743C18.9999 4.18743 18.1249 3.74993 17.4999 4.18743ZM17.4999 17.9687L16.1561 16.9999L14.0624 18.4999L11.9686 16.9999L9.90613 18.4999L7.81238 16.9999L6.49988 17.9687V6.06243L7.81238 7.03118L9.90613 5.53118L11.9999 7.03118L14.0624 5.53118L16.1561 7.03118L17.4999 6.06243V17.9687ZM15.7499 9.49993H8.24988C8.09363 9.49993 7.99988 9.62493 7.99988 9.74993V10.7499C7.99988 10.9062 8.09363 10.9999 8.24988 10.9999H15.7499C15.8749 10.9999 15.9999 10.9062 15.9999 10.7499V9.74993C15.9999 9.62493 15.8749 9.49993 15.7499 9.49993Z" fill="#E60F0F"/>
</svg>
