<svg width="15" height="16" viewBox="0 0 15 16" fill="none" xmlns="http://www.w3.org/2000/svg">
<path d="M11.67 4H14.67V13.5C14.67 14.9062 13.545 16 12.17 16H3.17004C1.76379 16 0.670044 14.9062 0.670044 13.5V4H3.67004C3.67004 1.8125 5.45129 0 7.67004 0C9.85754 0 11.67 1.8125 11.67 4ZM7.67004 1.5C6.26379 1.5 5.17004 2.625 5.17004 4H10.17C10.17 2.625 9.04504 1.5 7.67004 1.5ZM13.17 13.5V5.5H11.67V6.75C11.67 7.1875 11.3263 7.5 10.92 7.5C10.4825 7.5 10.17 7.1875 10.17 6.75V5.5H5.17004V6.75C5.17004 7.1875 4.82629 7.5 4.42004 7.5C3.98254 7.5 3.67004 7.1875 3.67004 6.75V5.5H2.17004V13.5C2.17004 14.0625 2.60754 14.5 3.17004 14.5H12.17C12.7013 14.5 13.17 14.0625 13.17 13.5Z" fill="#020202"/>
</svg>
