<svg width="18" height="17" viewBox="0 0 18 17" fill="none" xmlns="http://www.w3.org/2000/svg">
<path d="M16.8334 5.37482L12.2709 4.71857L10.2084 0.562318C9.86465 -0.156432 8.80215 -0.187682 8.42715 0.562318L6.3959 4.71857L1.80215 5.37482C0.989653 5.49982 0.677153 6.49982 1.2709 7.09357L4.55215 10.3123L3.7709 14.8436C3.6459 15.6561 4.5209 16.2811 5.23965 15.9061L9.3334 13.7498L13.3959 15.9061C14.1147 16.2811 14.9897 15.6561 14.8647 14.8436L14.0834 10.3123L17.3647 7.09357C17.9584 6.49982 17.6459 5.49982 16.8334 5.37482ZM12.4584 9.78107L13.2084 14.0936L9.3334 12.0623L5.42715 14.0936L6.17715 9.78107L3.0209 6.71857L7.36465 6.09357L9.3334 2.15607L11.2709 6.09357L15.6147 6.71857L12.4584 9.78107Z" fill="#E60F0F"/>
</svg>
