<svg width="24" height="24" viewBox="0 0 24 24" fill="none" xmlns="http://www.w3.org/2000/svg">
<path d="M21.1875 7.71875L19.1562 4.46875C18.9687 4.1875 18.6562 4 18.3125 4H5.6875C5.34375 4 5 4.1875 4.8125 4.46875L2.8125 7.71875C1.875 9.1875 2.5 11.1875 4 11.8125V18.9062C4 19.5312 4.4375 20 5 20H19C19.5312 20 20 19.5312 20 18.9062V11.8125C21.5 11.1875 22.0937 9.1875 21.1875 7.71875ZM18.5 18.5H5.5V15.5H18.5V18.5ZM18.4687 14H5.5V12C6.25 11.875 6.90625 11.5 7.375 10.9688C7.9375 11.5938 8.75 12 9.6875 12C10.5937 12 11.4062 11.5938 11.9687 10.9688C12.5312 11.5938 13.375 12 14.2812 12C15.2187 12 16.0312 11.5938 16.5937 10.9688C17.0625 11.5 17.7187 11.875 18.4687 12V14ZM19.9687 9.84375C19.875 10.0625 19.625 10.4375 19.125 10.5C19.0625 10.5 18.9687 10.5312 18.9062 10.5312C18.4375 10.5312 18.0312 10.3125 17.7187 9.96875L16.5937 8.71875L15.5 9.96875C15.1875 10.3125 14.75 10.5 14.2812 10.5C13.8437 10.5 13.4062 10.3125 13.0937 9.96875L12 8.71875L10.875 9.96875C10.5625 10.3125 10.125 10.5 9.6875 10.5C9.21875 10.5 8.8125 10.3125 8.5 9.96875L7.375 8.71875L6.25 9.96875C5.9375 10.3125 5.53125 10.5 5.0625 10.5C5 10.5 4.90625 10.5 4.84375 10.5C4.34375 10.4375 4.09375 10.0625 4 9.84375C3.84375 9.5 3.78125 9 4.0625 8.53125L5.9375 5.5H18.0312L19.9062 8.53125C20.1875 9 20.125 9.5 19.9687 9.84375Z" fill="white"/>
</svg>
