<svg width="10" height="10" viewBox="0 0 10 10" fill="none" xmlns="http://www.w3.org/2000/svg">
<path d="M8.79199 1.79165H7.27897L6.65918 0.770813C6.51335 0.515605 6.22168 0.333313 5.91178 0.333313H4.07064C3.76074 0.333313 3.46908 0.515605 3.32324 0.770813L2.70345 1.79165H1.20866C1.0446 1.79165 0.916992 1.93748 0.916992 2.08331V2.37498C0.916992 2.53904 1.0446 2.66665 1.20866 2.66665H1.50033L1.88314 8.84633C1.90137 9.32029 2.28418 9.66665 2.75814 9.66665H7.22428C7.69824 9.66665 8.08105 9.32029 8.09928 8.84633L8.50033 2.66665H8.79199C8.93783 2.66665 9.08366 2.53904 9.08366 2.37498V2.08331C9.08366 1.93748 8.93783 1.79165 8.79199 1.79165ZM4.07064 1.20831H5.91178L6.25814 1.79165H3.72428L4.07064 1.20831ZM7.22428 8.79165H2.75814L2.37533 2.66665H7.6071L7.22428 8.79165Z" fill="#020202"/>
</svg>
