<svg width="14" height="16" viewBox="0 0 14 16" fill="none" xmlns="http://www.w3.org/2000/svg">
<path d="M9.78223 9.5C8.87598 9.5 8.46973 10 7.00098 10C5.50098 10 5.09473 9.5 4.18848 9.5C1.87598 9.5 0.000976562 11.4062 0.000976562 13.7188V14.5C0.000976562 15.3438 0.657227 16 1.50098 16H12.501C13.3135 16 14.001 15.3438 14.001 14.5V13.7188C14.001 11.4062 12.0947 9.5 9.78223 9.5ZM12.501 14.5H1.50098V13.7188C1.50098 12.2188 2.68848 11 4.18848 11C4.65723 11 5.37598 11.5 7.00098 11.5C8.59473 11.5 9.31348 11 9.78223 11C11.2822 11 12.501 12.2188 12.501 13.7188V14.5ZM7.00098 9C9.46973 9 11.501 7 11.501 4.5C11.501 2.03125 9.46973 0 7.00098 0C4.50098 0 2.50098 2.03125 2.50098 4.5C2.50098 7 4.50098 9 7.00098 9ZM7.00098 1.5C8.62598 1.5 10.001 2.875 10.001 4.5C10.001 6.15625 8.62598 7.5 7.00098 7.5C5.34473 7.5 4.00098 6.15625 4.00098 4.5C4.00098 2.875 5.34473 1.5 7.00098 1.5Z" fill="#020202"/>
</svg>
