<svg width="90" height="22" viewBox="0 0 90 22" fill="none" xmlns="http://www.w3.org/2000/svg">
<rect x="0.5" y="0.5" width="89" height="21" rx="1.5" fill="#F6FFED"/>
<rect x="0.5" y="0.5" width="89" height="21" rx="1.5" stroke="#B7EB8F"/>
<path d="M16.5044 8.87012H15.8763C15.7397 8.87012 15.6098 8.93574 15.5294 9.04824L13.4241 11.9679L12.4705 10.6447C12.3901 10.5335 12.2616 10.4665 12.1236 10.4665H11.4955C11.4084 10.4665 11.3575 10.5657 11.4084 10.6366L13.0772 12.9509C13.1166 13.0059 13.1686 13.0508 13.2288 13.0817C13.289 13.1126 13.3557 13.1288 13.4234 13.1288C13.4911 13.1288 13.5578 13.1126 13.618 13.0817C13.6782 13.0508 13.7302 13.0059 13.7696 12.9509L16.5901 9.04021C16.6424 8.96922 16.5915 8.87012 16.5044 8.87012Z" fill="#52C41A"/>
<path d="M14 5C10.6866 5 8 7.68661 8 11C8 14.3134 10.6866 17 14 17C17.3134 17 20 14.3134 20 11C20 7.68661 17.3134 5 14 5ZM14 15.9821C11.2491 15.9821 9.01786 13.7509 9.01786 11C9.01786 8.24911 11.2491 6.01786 14 6.01786C16.7509 6.01786 18.9821 8.24911 18.9821 11C18.9821 13.7509 16.7509 15.9821 14 15.9821Z" fill="#52C41A"/>
<path d="M31.7441 13.7051L34.2578 6.46875H35.4824L32.3242 15H31.4512L31.7441 13.7051ZM29.3945 6.46875L31.8848 13.7051L32.1953 15H31.3223L28.1699 6.46875H29.3945ZM38.8398 15.1172C38.3984 15.1172 37.998 15.043 37.6387 14.8945C37.2832 14.7422 36.9766 14.5293 36.7188 14.2559C36.4648 13.9824 36.2695 13.6582 36.1328 13.2832C35.9961 12.9082 35.9277 12.498 35.9277 12.0527V11.8066C35.9277 11.291 36.0039 10.832 36.1562 10.4297C36.3086 10.0234 36.5156 9.67969 36.7773 9.39844C37.0391 9.11719 37.3359 8.9043 37.668 8.75977C38 8.61523 38.3438 8.54297 38.6992 8.54297C39.1523 8.54297 39.543 8.62109 39.8711 8.77734C40.2031 8.93359 40.4746 9.15234 40.6855 9.43359C40.8965 9.71094 41.0527 10.0391 41.1543 10.418C41.2559 10.793 41.3066 11.2031 41.3066 11.6484V12.1348H36.5723V11.25H40.2227V11.168C40.207 10.8867 40.1484 10.6133 40.0469 10.3477C39.9492 10.082 39.793 9.86328 39.5781 9.69141C39.3633 9.51953 39.0703 9.43359 38.6992 9.43359C38.4531 9.43359 38.2266 9.48633 38.0195 9.5918C37.8125 9.69336 37.6348 9.8457 37.4863 10.0488C37.3379 10.252 37.2227 10.5 37.1406 10.793C37.0586 11.0859 37.0176 11.4238 37.0176 11.8066V12.0527C37.0176 12.3535 37.0586 12.6367 37.1406 12.9023C37.2266 13.1641 37.3496 13.3945 37.5098 13.5938C37.6738 13.793 37.8711 13.9492 38.1016 14.0625C38.3359 14.1758 38.6016 14.2324 38.8984 14.2324C39.2812 14.2324 39.6055 14.1543 39.8711 13.998C40.1367 13.8418 40.3691 13.6328 40.5684 13.3711L41.2246 13.8926C41.0879 14.0996 40.9141 14.2969 40.7031 14.4844C40.4922 14.6719 40.2324 14.8242 39.9238 14.9414C39.6191 15.0586 39.2578 15.1172 38.8398 15.1172ZM43.6562 9.65625V15H42.5723V8.66016H43.627L43.6562 9.65625ZM45.6367 8.625L45.6309 9.63281C45.541 9.61328 45.4551 9.60156 45.373 9.59766C45.2949 9.58984 45.2051 9.58594 45.1035 9.58594C44.8535 9.58594 44.6328 9.625 44.4414 9.70312C44.25 9.78125 44.0879 9.89062 43.9551 10.0312C43.8223 10.1719 43.7168 10.3398 43.6387 10.5352C43.5645 10.7266 43.5156 10.9375 43.4922 11.168L43.1875 11.3438C43.1875 10.9609 43.2246 10.6016 43.2988 10.2656C43.377 9.92969 43.4961 9.63281 43.6562 9.375C43.8164 9.11328 44.0195 8.91016 44.2656 8.76562C44.5156 8.61719 44.8125 8.54297 45.1562 8.54297C45.2344 8.54297 45.3242 8.55273 45.4258 8.57227C45.5273 8.58789 45.5977 8.60547 45.6367 8.625ZM47.8164 8.66016V15H46.7266V8.66016H47.8164ZM46.6445 6.97852C46.6445 6.80273 46.6973 6.6543 46.8027 6.5332C46.9121 6.41211 47.0723 6.35156 47.2832 6.35156C47.4902 6.35156 47.6484 6.41211 47.7578 6.5332C47.8711 6.6543 47.9277 6.80273 47.9277 6.97852C47.9277 7.14648 47.8711 7.29102 47.7578 7.41211C47.6484 7.5293 47.4902 7.58789 47.2832 7.58789C47.0723 7.58789 46.9121 7.5293 46.8027 7.41211C46.6973 7.29102 46.6445 7.14648 46.6445 6.97852ZM51.0039 15H49.9199V8.10938C49.9199 7.62891 50.0137 7.22266 50.2012 6.89062C50.3887 6.55859 50.6562 6.30664 51.0039 6.13477C51.3516 5.96289 51.7637 5.87695 52.2402 5.87695C52.5215 5.87695 52.7969 5.91211 53.0664 5.98242C53.3359 6.04883 53.6133 6.13281 53.8984 6.23438L53.7168 7.14844C53.5371 7.07812 53.3281 7.01172 53.0898 6.94922C52.8555 6.88281 52.5977 6.84961 52.3164 6.84961C51.8516 6.84961 51.5156 6.95508 51.3086 7.16602C51.1055 7.37305 51.0039 7.6875 51.0039 8.10938V15ZM52.2988 8.66016V9.49219H48.918V8.66016H52.2988ZM54.4316 8.66016V15H53.3477V8.66016H54.4316ZM58.75 14.2266C59.0078 14.2266 59.2461 14.1738 59.4648 14.0684C59.6836 13.9629 59.8633 13.8184 60.0039 13.6348C60.1445 13.4473 60.2246 13.2344 60.2441 12.9961H61.2754C61.2559 13.3711 61.1289 13.7207 60.8945 14.0449C60.6641 14.3652 60.3613 14.625 59.9863 14.8242C59.6113 15.0195 59.1992 15.1172 58.75 15.1172C58.2734 15.1172 57.8574 15.0332 57.502 14.8652C57.1504 14.6973 56.8574 14.4668 56.623 14.1738C56.3926 13.8809 56.2188 13.5449 56.1016 13.166C55.9883 12.7832 55.9316 12.3789 55.9316 11.9531V11.707C55.9316 11.2812 55.9883 10.8789 56.1016 10.5C56.2188 10.1172 56.3926 9.7793 56.623 9.48633C56.8574 9.19336 57.1504 8.96289 57.502 8.79492C57.8574 8.62695 58.2734 8.54297 58.75 8.54297C59.2461 8.54297 59.6797 8.64453 60.0508 8.84766C60.4219 9.04688 60.7129 9.32031 60.9238 9.66797C61.1387 10.0117 61.2559 10.4023 61.2754 10.8398H60.2441C60.2246 10.5781 60.1504 10.3418 60.0215 10.1309C59.8965 9.91992 59.7246 9.75195 59.5059 9.62695C59.291 9.49805 59.0391 9.43359 58.75 9.43359C58.418 9.43359 58.1387 9.5 57.9121 9.63281C57.6895 9.76172 57.5117 9.9375 57.3789 10.1602C57.25 10.3789 57.1562 10.623 57.0977 10.8926C57.043 11.1582 57.0156 11.4297 57.0156 11.707V11.9531C57.0156 12.2305 57.043 12.5039 57.0977 12.7734C57.1523 13.043 57.2441 13.2871 57.373 13.5059C57.5059 13.7246 57.6836 13.9004 57.9062 14.0332C58.1328 14.1621 58.4141 14.2266 58.75 14.2266ZM66.2324 13.916V10.6523C66.2324 10.4023 66.1816 10.1855 66.0801 10.002C65.9824 9.81445 65.834 9.66992 65.6348 9.56836C65.4355 9.4668 65.1895 9.41602 64.8965 9.41602C64.623 9.41602 64.3828 9.46289 64.1758 9.55664C63.9727 9.65039 63.8125 9.77344 63.6953 9.92578C63.582 10.0781 63.5254 10.2422 63.5254 10.418H62.4414C62.4414 10.1914 62.5 9.9668 62.6172 9.74414C62.7344 9.52148 62.9023 9.32031 63.1211 9.14062C63.3438 8.95703 63.6094 8.8125 63.918 8.70703C64.2305 8.59766 64.5781 8.54297 64.9609 8.54297C65.4219 8.54297 65.8281 8.62109 66.1797 8.77734C66.5352 8.93359 66.8125 9.16992 67.0117 9.48633C67.2148 9.79883 67.3164 10.1914 67.3164 10.6641V13.6172C67.3164 13.8281 67.334 14.0527 67.3691 14.291C67.4082 14.5293 67.4648 14.7344 67.5391 14.9062V15H66.4082C66.3535 14.875 66.3105 14.709 66.2793 14.502C66.248 14.291 66.2324 14.0957 66.2324 13.916ZM66.4199 11.1562L66.4316 11.918H65.3359C65.0273 11.918 64.752 11.9434 64.5098 11.9941C64.2676 12.041 64.0645 12.1133 63.9004 12.2109C63.7363 12.3086 63.6113 12.4316 63.5254 12.5801C63.4395 12.7246 63.3965 12.8945 63.3965 13.0898C63.3965 13.2891 63.4414 13.4707 63.5312 13.6348C63.6211 13.7988 63.7559 13.9297 63.9355 14.0273C64.1191 14.1211 64.3438 14.168 64.6094 14.168C64.9414 14.168 65.2344 14.0977 65.4883 13.957C65.7422 13.8164 65.9434 13.6445 66.0918 13.4414C66.2441 13.2383 66.3262 13.041 66.3379 12.8496L66.8008 13.3711C66.7734 13.5352 66.6992 13.7168 66.5781 13.916C66.457 14.1152 66.2949 14.3066 66.0918 14.4902C65.8926 14.6699 65.6543 14.8203 65.377 14.9414C65.1035 15.0586 64.7949 15.1172 64.4512 15.1172C64.0215 15.1172 63.6445 15.0332 63.3203 14.8652C63 14.6973 62.75 14.4727 62.5703 14.1914C62.3945 13.9062 62.3066 13.5879 62.3066 13.2363C62.3066 12.8965 62.373 12.5977 62.5059 12.3398C62.6387 12.0781 62.8301 11.8613 63.0801 11.6895C63.3301 11.5137 63.6309 11.3809 63.9824 11.291C64.334 11.2012 64.7266 11.1562 65.1602 11.1562H66.4199ZM73.0176 13.7695V6H74.1074V15H73.1113L73.0176 13.7695ZM68.752 11.9004V11.7773C68.752 11.293 68.8105 10.8535 68.9277 10.459C69.0488 10.0605 69.2188 9.71875 69.4375 9.43359C69.6602 9.14844 69.9238 8.92969 70.2285 8.77734C70.5371 8.62109 70.8809 8.54297 71.2598 8.54297C71.6582 8.54297 72.0059 8.61328 72.3027 8.75391C72.6035 8.89062 72.8574 9.0918 73.0645 9.35742C73.2754 9.61914 73.4414 9.93555 73.5625 10.3066C73.6836 10.6777 73.7676 11.0977 73.8145 11.5664V12.1055C73.7715 12.5703 73.6875 12.9883 73.5625 13.3594C73.4414 13.7305 73.2754 14.0469 73.0645 14.3086C72.8574 14.5703 72.6035 14.7715 72.3027 14.9121C72.002 15.0488 71.6504 15.1172 71.248 15.1172C70.877 15.1172 70.5371 15.0371 70.2285 14.877C69.9238 14.7168 69.6602 14.4922 69.4375 14.2031C69.2188 13.9141 69.0488 13.5742 68.9277 13.1836C68.8105 12.7891 68.752 12.3613 68.752 11.9004ZM69.8418 11.7773V11.9004C69.8418 12.2168 69.873 12.5137 69.9355 12.791C70.002 13.0684 70.1035 13.3125 70.2402 13.5234C70.377 13.7344 70.5508 13.9004 70.7617 14.0215C70.9727 14.1387 71.2246 14.1973 71.5176 14.1973C71.877 14.1973 72.1719 14.1211 72.4023 13.9688C72.6367 13.8164 72.8242 13.6152 72.9648 13.3652C73.1055 13.1152 73.2148 12.8438 73.293 12.5508V11.1387C73.2461 10.9238 73.1777 10.7168 73.0879 10.5176C73.002 10.3145 72.8887 10.1348 72.748 9.97852C72.6113 9.81836 72.4414 9.69141 72.2383 9.59766C72.0391 9.50391 71.8027 9.45703 71.5293 9.45703C71.2324 9.45703 70.9766 9.51953 70.7617 9.64453C70.5508 9.76562 70.377 9.93359 70.2402 10.1484C70.1035 10.3594 70.002 10.6055 69.9355 10.8867C69.873 11.1641 69.8418 11.4609 69.8418 11.7773ZM79.5332 13.916V10.6523C79.5332 10.4023 79.4824 10.1855 79.3809 10.002C79.2832 9.81445 79.1348 9.66992 78.9355 9.56836C78.7363 9.4668 78.4902 9.41602 78.1973 9.41602C77.9238 9.41602 77.6836 9.46289 77.4766 9.55664C77.2734 9.65039 77.1133 9.77344 76.9961 9.92578C76.8828 10.0781 76.8262 10.2422 76.8262 10.418H75.7422C75.7422 10.1914 75.8008 9.9668 75.918 9.74414C76.0352 9.52148 76.2031 9.32031 76.4219 9.14062C76.6445 8.95703 76.9102 8.8125 77.2188 8.70703C77.5312 8.59766 77.8789 8.54297 78.2617 8.54297C78.7227 8.54297 79.1289 8.62109 79.4805 8.77734C79.8359 8.93359 80.1133 9.16992 80.3125 9.48633C80.5156 9.79883 80.6172 10.1914 80.6172 10.6641V13.6172C80.6172 13.8281 80.6348 14.0527 80.6699 14.291C80.709 14.5293 80.7656 14.7344 80.8398 14.9062V15H79.709C79.6543 14.875 79.6113 14.709 79.5801 14.502C79.5488 14.291 79.5332 14.0957 79.5332 13.916ZM79.7207 11.1562L79.7324 11.918H78.6367C78.3281 11.918 78.0527 11.9434 77.8105 11.9941C77.5684 12.041 77.3652 12.1133 77.2012 12.2109C77.0371 12.3086 76.9121 12.4316 76.8262 12.5801C76.7402 12.7246 76.6973 12.8945 76.6973 13.0898C76.6973 13.2891 76.7422 13.4707 76.832 13.6348C76.9219 13.7988 77.0566 13.9297 77.2363 14.0273C77.4199 14.1211 77.6445 14.168 77.9102 14.168C78.2422 14.168 78.5352 14.0977 78.7891 13.957C79.043 13.8164 79.2441 13.6445 79.3926 13.4414C79.5449 13.2383 79.627 13.041 79.6387 12.8496L80.1016 13.3711C80.0742 13.5352 80 13.7168 79.8789 13.916C79.7578 14.1152 79.5957 14.3066 79.3926 14.4902C79.1934 14.6699 78.9551 14.8203 78.6777 14.9414C78.4043 15.0586 78.0957 15.1172 77.752 15.1172C77.3223 15.1172 76.9453 15.0332 76.6211 14.8652C76.3008 14.6973 76.0508 14.4727 75.8711 14.1914C75.6953 13.9062 75.6074 13.5879 75.6074 13.2363C75.6074 12.8965 75.6738 12.5977 75.8066 12.3398C75.9395 12.0781 76.1309 11.8613 76.3809 11.6895C76.6309 11.5137 76.9316 11.3809 77.2832 11.291C77.6348 11.2012 78.0273 11.1562 78.4609 11.1562H79.7207Z" fill="#52C41A"/>
</svg>
